<?xml version="1.0" encoding="utf-8"?>
<!-- Generator: Adobe Illustrator 27.5.0, SVG Export Plug-In . SVG Version: 6.00 Build 0)  -->
<svg version="1.1" id="Layer_1" xmlns="http://www.w3.org/2000/svg" xmlns:xlink="http://www.w3.org/1999/xlink" x="0px" y="0px"
	 viewBox="0 0 225.579 243.348" style="enable-background:new 0 0 225.579 243.348;" xml:space="preserve">
<g>
	<g>
		<path style="fill:#FFFFFF;" d="M209.599,233.994c3.235-3.256,3.21-7.174,3.194-9.515l-0.003-36.772
			c0.785-1.347,1.449-3.018,1.626-5.043c0.17-1.95-0.065-4.554-1.626-7.292v-1.233c2.446-3.2,2.295-6.681,2.234-8.058
			c-0.018-0.42-0.034-0.782-0.019-1.282c0.014-0.487,0.007-0.926-0.011-1.362l-0.013-0.265c-0.002-0.032-0.004-0.064-0.006-0.096
			c-0.033-0.516-0.082-0.98-0.138-1.335c-0.006-0.042-0.013-0.085-0.019-0.127c-0.089-0.566-0.212-1.114-0.379-1.688
			c-0.035-0.12-0.071-0.236-0.109-0.353c-0.202-0.622-0.433-1.188-0.707-1.732c-0.008-0.016-0.016-0.032-0.024-0.048
			c-0.042-0.082-0.085-0.165-0.129-0.246c1.996-2.18,3.337-5.636,2.359-11.108c-0.038-0.212-0.081-0.423-0.107-0.628
			c-0.042-0.719-0.145-1.426-0.305-2.106c-0.017-0.075-0.035-0.149-0.052-0.22c-0.02-0.081-0.041-0.162-0.064-0.242
			c-0.128-0.459-0.285-0.908-0.47-1.343c0.004-0.007,0.008-0.014,0.012-0.021c0.554-0.899,0.969-1.868,1.222-2.834
			c0.592-2.214,0.543-4.038,0.514-5.127c0-0.04-0.002-0.08-0.003-0.119c0.041-0.221,0.074-0.443,0.099-0.665
			c0.287-1.775,0.143-3.598-0.434-5.347c-0.041-0.122-0.086-0.248-0.133-0.373c-0.117-0.317-0.244-0.62-0.384-0.918
			c-0.038-0.082-0.077-0.164-0.117-0.244c-0.122-0.247-0.253-0.486-0.395-0.718c-0.675-1.146-1.502-2.12-2.423-2.973v-0.88
			c6.9-3.006,7.149-10.116,7.149-11.117V93.962c0-0.322-0.001-0.625-0.005-0.897c-0.001-0.031-0.003-0.153-0.004-0.184
			c-0.012-0.472-0.039-0.929-0.084-1.394c-0.01-0.101-0.021-0.204-0.034-0.304c-0.069-0.593-0.176-1.186-0.31-1.742
			c-0.017-0.071-0.048-0.198-0.066-0.269c-0.394-1.517-1.031-2.981-1.949-4.475c-0.015-0.023-0.029-0.047-0.043-0.07
			c-0.132-0.214-0.277-0.437-0.466-0.72c-0.01-0.015-0.03-0.045-0.051-0.075c-0.13-0.192-0.265-0.386-0.402-0.575l-0.148-0.202
			c-0.002-0.002-0.068-0.093-0.07-0.096c-0.102-0.138-0.204-0.276-0.32-0.427l-0.561-0.712c-0.199-0.247-0.409-0.502-0.621-0.753
			c-1.627-1.932-6.874-7.642-14.694-16.133c-4.232-4.596-9.5-10.315-10.251-11.209c-4.007-4.815-7.918-5.391-11.905-5.588
			l-0.758-0.04c-0.271-0.016-0.674-0.04-5.209-0.157c-0.828-2.473-1.988-4.68-3.421-6.432c-1.428-1.746-3.981-4.869-8.249-6.432
			c-0.94-3.495-2.704-6.598-5.008-8.733c-1.665-1.532-9.522-7.254-17.549-7.254c-1.652,0-3.228,0.242-4.696,0.716
			c-4.141-3.792-7.777-4.216-11.729-4.348l-0.402-0.014c-1.349-0.049-2.624-0.095-3.813-0.095c-2.246,0-4.885,0.144-7.435,1.208
			c-1.627,0.678-3.478,1.802-5.161,3.348c-1.737-0.575-3.682-0.908-5.857-0.908l-0.107,0c-0.056,0-0.131,0.001-0.202,0.002
			c-0.33,0.004-0.657,0.017-0.98,0.037c-0.049,0.002-0.098,0.005-0.148,0.009c-0.34,0.023-0.674,0.054-0.965,0.087l-0.275,0.033
			c-0.255,0.031-0.506,0.066-0.761,0.106c-0.055,0.008-0.109,0.017-0.165,0.026c-0.249,0.04-0.492,0.085-0.797,0.143l-0.189,0.038
			c-0.234,0.047-0.465,0.096-0.728,0.155C87.8,20.895,78.127,24.275,75.716,32.69c-0.009,0.032-0.018,0.064-0.027,0.095
			c-0.174,0.634-0.316,1.279-0.424,1.941c-0.033,0.013-0.065,0.026-0.097,0.039c-0.289,0.117-0.566,0.242-0.899,0.401
			c-0.263,0.118-0.523,0.244-0.764,0.373c-0.581,0.31-1.138,0.652-1.642,1.007c-2.683,1.885-4.7,4.402-6.009,7.51
			c-0.18,0.43-0.342,0.869-0.499,1.35c-1.574-0.044-2.255-0.067-2.537-0.08c-0.615-0.056-1.192-0.083-1.758-0.083
			c-4.05,0-7.725,1.476-10.914,4.383l-0.32,0.293c-3.118,2.863-30.517,28.055-32.287,30.707c-2.364,3.554-2.638,7.24-2.638,9.704
			v18.26c0,4.332,1.989,8.039,5.181,10.363v106.345c0,5.882,4.569,11.965,12.215,11.965h168.52
			C202.186,237.264,206.35,237.264,209.599,233.994z"/>
		<path style="fill:#F1F1F1;" d="M208.756,233.152c3.235-3.257,3.21-7.174,3.194-9.515l-0.003-36.772
			c0.785-1.347,1.449-3.018,1.625-5.042c0.17-1.95-0.065-4.555-1.625-7.292v-1.234c2.446-3.2,2.294-6.68,2.234-8.058
			c-0.019-0.419-0.034-0.782-0.019-1.282c0.014-0.487,0.007-0.926-0.01-1.362l-0.014-0.265c-0.001-0.032-0.003-0.064-0.005-0.097
			c-0.035-0.516-0.085-0.98-0.138-1.335c-0.006-0.042-0.012-0.085-0.019-0.127c-0.09-0.565-0.212-1.114-0.379-1.688
			c-0.035-0.12-0.071-0.236-0.109-0.353c-0.202-0.621-0.431-1.189-0.707-1.732c-0.008-0.016-0.016-0.032-0.024-0.047
			c-0.042-0.082-0.084-0.165-0.129-0.246c1.996-2.18,3.337-5.636,2.36-11.108c-0.038-0.212-0.081-0.423-0.106-0.628
			c-0.043-0.72-0.147-1.427-0.305-2.107c-0.017-0.075-0.034-0.149-0.052-0.22c-0.02-0.082-0.042-0.162-0.065-0.242
			c-0.129-0.459-0.285-0.908-0.469-1.343c0.004-0.006,0.008-0.013,0.012-0.02c0.537-0.91,0.967-1.869,1.223-2.833
			c0.586-2.216,0.547-4.038,0.514-5.128c-0.001-0.04-0.003-0.079-0.003-0.119c0.041-0.221,0.073-0.443,0.098-0.667
			c0.287-1.775,0.146-3.599-0.434-5.346c-0.04-0.122-0.086-0.247-0.133-0.373c-0.118-0.316-0.245-0.62-0.383-0.917
			c-0.039-0.083-0.077-0.164-0.117-0.243c-0.123-0.247-0.255-0.486-0.395-0.719c-0.683-1.141-1.502-2.12-2.423-2.973v-0.879
			c6.9-3.006,7.149-10.116,7.149-11.117V93.121c0-0.322,0-0.626-0.005-0.898c-0.001-0.03-0.004-0.152-0.005-0.183
			c-0.013-0.472-0.038-0.929-0.083-1.394c-0.01-0.101-0.022-0.204-0.034-0.305c-0.07-0.592-0.18-1.184-0.311-1.741
			c-0.017-0.071-0.047-0.198-0.066-0.269c-0.393-1.517-1.021-2.987-1.949-4.475c-0.014-0.023-0.028-0.047-0.043-0.07
			c-0.133-0.214-0.275-0.438-0.466-0.72c-0.01-0.015-0.031-0.044-0.052-0.075c-0.133-0.191-0.266-0.387-0.401-0.575l-0.148-0.203
			c-0.002-0.002-0.069-0.093-0.071-0.095c-0.102-0.138-0.204-0.276-0.32-0.427l-0.561-0.713c-0.199-0.247-0.409-0.502-0.621-0.753
			c-1.627-1.932-6.875-7.642-14.694-16.133c-4.232-4.597-9.501-10.314-10.251-11.21c-4.019-4.804-7.917-5.39-11.904-5.587
			l-0.758-0.04c-0.271-0.016-0.674-0.04-5.209-0.157c-0.828-2.472-1.988-4.68-3.422-6.432c-1.428-1.746-3.98-4.869-8.249-6.433
			c-0.94-3.495-2.703-6.598-5.008-8.733c-1.665-1.533-9.522-7.254-17.548-7.254c-1.652,0-3.229,0.241-4.697,0.715
			c-4.141-3.791-7.777-4.215-11.729-4.348l-0.402-0.014c-1.35-0.049-2.624-0.095-3.813-0.095c-2.245,0-4.886,0.143-7.434,1.208
			c-1.627,0.678-3.478,1.803-5.162,3.348c-1.736-0.575-3.682-0.908-5.857-0.908l-0.108,0c-0.056,0-0.131,0.001-0.202,0.002
			c-0.329,0.005-0.656,0.017-0.98,0.037c-0.048,0.002-0.099,0.005-0.148,0.009c-0.34,0.023-0.674,0.055-0.965,0.087l-0.275,0.033
			c-0.255,0.032-0.506,0.066-0.761,0.105c-0.055,0.008-0.11,0.017-0.164,0.025c-0.249,0.04-0.493,0.085-0.797,0.143l-0.189,0.038
			c-0.234,0.047-0.466,0.095-0.728,0.154c-5.551,1.266-15.12,4.678-17.635,13.062c-0.009,0.031-0.019,0.064-0.027,0.095
			c-0.172,0.635-0.316,1.278-0.425,1.941c-0.033,0.013-0.065,0.025-0.097,0.038c-0.29,0.114-0.564,0.246-0.899,0.401
			c-0.261,0.121-0.522,0.244-0.764,0.372c-0.582,0.311-1.138,0.653-1.642,1.008c-2.684,1.885-4.7,4.401-6.009,7.509
			c-0.18,0.431-0.342,0.869-0.499,1.351c-1.574-0.044-2.255-0.067-2.537-0.08c-0.615-0.056-1.192-0.083-1.758-0.083
			c-4.05,0-7.725,1.477-10.914,4.383l-0.321,0.293c-3.117,2.864-30.517,28.055-32.286,30.707c-2.364,3.554-2.638,7.241-2.638,9.705
			v18.26c0,4.331,1.989,8.038,5.181,10.363v106.344c0,5.882,4.568,11.966,12.215,11.966h168.519
			C201.344,236.422,205.508,236.422,208.756,233.152z"/>
		<path style="fill:#E2E2E2;" d="M207.915,232.31c3.235-3.256,3.209-7.174,3.194-9.515l-0.003-36.772
			c0.785-1.347,1.448-3.018,1.625-5.043c0.17-1.949-0.064-4.554-1.625-7.291v-1.234c2.446-3.2,2.295-6.68,2.234-8.057
			c-0.018-0.419-0.033-0.782-0.018-1.282c0.014-0.487,0.007-0.926-0.011-1.362l-0.014-0.265c-0.002-0.033-0.003-0.064-0.005-0.097
			c-0.035-0.516-0.087-0.979-0.138-1.334c-0.006-0.043-0.012-0.085-0.019-0.128c-0.085-0.567-0.213-1.114-0.38-1.688
			c-0.036-0.12-0.072-0.236-0.11-0.352c-0.202-0.622-0.439-1.185-0.706-1.732c-0.008-0.017-0.017-0.032-0.025-0.048
			c-0.043-0.081-0.085-0.165-0.129-0.246c1.996-2.18,3.337-5.636,2.36-11.107c-0.038-0.212-0.082-0.424-0.107-0.628
			c-0.042-0.72-0.149-1.426-0.305-2.107c-0.017-0.075-0.035-0.149-0.052-0.22c-0.02-0.081-0.042-0.162-0.064-0.241
			c-0.129-0.459-0.286-0.909-0.47-1.343c0.004-0.007,0.009-0.014,0.012-0.02c0.539-0.909,0.967-1.869,1.222-2.834
			c0.586-2.216,0.548-4.039,0.515-5.128c-0.001-0.039-0.003-0.079-0.004-0.119c0.041-0.221,0.074-0.443,0.099-0.666
			c0.287-1.774,0.146-3.599-0.434-5.346c-0.04-0.122-0.086-0.248-0.133-0.373c-0.117-0.317-0.247-0.62-0.385-0.918
			c-0.038-0.083-0.077-0.164-0.116-0.243c-0.122-0.247-0.256-0.486-0.395-0.719c-0.682-1.141-1.502-2.12-2.423-2.972V120
			c6.9-3.006,7.149-10.115,7.149-11.117V92.278c0-0.322-0.001-0.625-0.006-0.897c0-0.03-0.003-0.152-0.003-0.183
			c-0.01-0.472-0.038-0.929-0.084-1.394c-0.01-0.101-0.022-0.204-0.034-0.304c-0.07-0.592-0.179-1.185-0.311-1.742
			c-0.017-0.071-0.048-0.199-0.066-0.269c-0.393-1.518-1.039-2.977-1.949-4.476c-0.014-0.023-0.029-0.047-0.043-0.07
			c-0.131-0.215-0.276-0.439-0.466-0.72c-0.01-0.015-0.031-0.046-0.051-0.076c-0.131-0.191-0.266-0.386-0.402-0.574l-0.147-0.203
			c-0.002-0.002-0.069-0.093-0.071-0.095c-0.102-0.138-0.204-0.276-0.32-0.426l-0.561-0.713c-0.199-0.247-0.409-0.502-0.622-0.753
			c-1.627-1.932-6.874-7.642-14.693-16.133c-4.232-4.596-9.502-10.313-10.251-11.209c-4.018-4.805-7.918-5.391-11.905-5.588
			l-0.757-0.039c-0.272-0.016-0.675-0.04-5.209-0.156c-0.828-2.473-1.987-4.68-3.421-6.432c-1.428-1.747-3.982-4.87-8.25-6.432
			c-0.939-3.495-2.703-6.599-5.008-8.734c-1.665-1.531-9.522-7.254-17.549-7.254c-1.651,0-3.228,0.243-4.696,0.716
			c-4.142-3.79-7.777-4.216-11.729-4.348l-0.402-0.014c-1.349-0.049-2.624-0.095-3.813-0.095c-2.245,0-4.886,0.143-7.435,1.208
			c-1.627,0.678-3.477,1.803-5.161,3.348c-1.737-0.575-3.682-0.908-5.857-0.908h-0.107c-0.056,0-0.131,0.001-0.202,0.002
			c-0.331,0.005-0.657,0.02-0.98,0.038c-0.049,0.003-0.099,0.005-0.149,0.008c-0.34,0.021-0.674,0.054-0.965,0.088l-0.276,0.032
			c-0.254,0.032-0.504,0.068-0.76,0.106c-0.055,0.008-0.11,0.016-0.164,0.025c-0.249,0.042-0.492,0.085-0.797,0.143l-0.189,0.037
			c-0.234,0.047-0.465,0.096-0.727,0.154c-5.555,1.253-15.224,4.647-17.636,13.063c-0.009,0.031-0.018,0.063-0.026,0.095
			c-0.173,0.635-0.316,1.278-0.425,1.941c-0.033,0.013-0.065,0.025-0.096,0.038c-0.289,0.119-0.564,0.246-0.899,0.401
			c-0.262,0.121-0.523,0.244-0.764,0.373c-0.582,0.311-1.138,0.653-1.642,1.008c-2.683,1.885-4.701,4.402-6.009,7.51
			c-0.179,0.43-0.342,0.868-0.499,1.35c-1.574-0.044-2.255-0.067-2.537-0.079c-0.616-0.056-1.192-0.084-1.759-0.084
			c-4.049,0-7.724,1.477-10.914,4.383l-0.32,0.293c-3.119,2.863-30.517,28.054-32.287,30.707c-2.364,3.554-2.638,7.241-2.638,9.705
			v18.26c0,4.331,1.988,8.038,5.18,10.363v106.344c0,5.881,4.569,11.965,12.216,11.965h168.52
			C200.502,235.58,204.666,235.58,207.915,232.31z"/>
		<path style="fill:#D4D4D4;" d="M207.072,231.468c3.235-3.256,3.209-7.174,3.194-9.515l-0.003-36.771
			c0.786-1.347,1.449-3.019,1.625-5.044c0.169-1.95-0.065-4.554-1.625-7.292v-1.233c2.446-3.2,2.295-6.681,2.234-8.058
			c-0.018-0.419-0.033-0.782-0.018-1.282c0.015-0.487,0.007-0.926-0.01-1.362l-0.014-0.265c-0.002-0.032-0.003-0.064-0.005-0.096
			c-0.031-0.516-0.086-0.98-0.138-1.335c-0.006-0.042-0.012-0.085-0.019-0.128c-0.09-0.566-0.211-1.115-0.38-1.688
			c-0.035-0.12-0.071-0.236-0.109-0.352c-0.202-0.622-0.431-1.189-0.707-1.732c-0.008-0.016-0.016-0.032-0.024-0.048
			c-0.042-0.082-0.085-0.164-0.129-0.245c1.995-2.18,3.337-5.636,2.359-11.108c-0.038-0.212-0.081-0.424-0.107-0.628
			c-0.042-0.72-0.146-1.426-0.304-2.107c-0.017-0.075-0.034-0.149-0.052-0.22c-0.021-0.081-0.042-0.162-0.064-0.242
			c-0.129-0.459-0.286-0.907-0.47-1.342c0.004-0.007,0.008-0.014,0.013-0.021c0.569-0.889,0.967-1.868,1.222-2.833
			c0.586-2.215,0.535-4.038,0.514-5.128c-0.001-0.04-0.002-0.079-0.003-0.119c0.041-0.221,0.074-0.443,0.099-0.665
			c0.287-1.775,0.146-3.599-0.434-5.347c-0.04-0.122-0.086-0.248-0.133-0.373c-0.119-0.316-0.245-0.62-0.384-0.918
			c-0.038-0.082-0.077-0.163-0.116-0.243c-0.122-0.247-0.256-0.485-0.395-0.718c-0.682-1.141-1.502-2.121-2.422-2.972v-0.88
			c6.901-3.006,7.149-10.116,7.149-11.117V91.437c0-0.322,0-0.626-0.005-0.897c-0.001-0.03-0.003-0.152-0.004-0.183
			c-0.01-0.472-0.039-0.929-0.084-1.395c-0.01-0.101-0.021-0.204-0.034-0.304c-0.071-0.592-0.178-1.185-0.31-1.742
			c-0.017-0.071-0.047-0.198-0.066-0.269c-0.394-1.518-1.017-2.99-1.949-4.476c-0.015-0.023-0.029-0.047-0.043-0.07
			c-0.133-0.214-0.277-0.438-0.467-0.721c-0.01-0.015-0.031-0.045-0.051-0.075c-0.13-0.192-0.265-0.386-0.401-0.575l-0.147-0.202
			c-0.002-0.002-0.069-0.093-0.071-0.096c-0.102-0.138-0.204-0.276-0.319-0.427l-0.561-0.712c-0.199-0.247-0.409-0.502-0.621-0.753
			c-1.628-1.932-6.874-7.642-14.694-16.134c-4.233-4.596-9.502-10.313-10.251-11.209c-4.018-4.806-7.918-5.39-11.905-5.588
			l-0.757-0.039c-0.272-0.016-0.675-0.039-5.21-0.156c-0.828-2.472-1.987-4.68-3.421-6.432c-1.428-1.746-3.982-4.869-8.249-6.432
			c-0.94-3.495-2.704-6.599-5.008-8.734c-1.666-1.532-9.522-7.254-17.549-7.254c-1.651,0-3.228,0.242-4.696,0.716
			c-4.142-3.791-7.777-4.216-11.729-4.348l-0.402-0.015c-1.349-0.049-2.624-0.095-3.813-0.095c-2.246,0-4.886,0.142-7.435,1.207
			c-1.627,0.678-3.477,1.803-5.161,3.348c-1.737-0.576-3.682-0.908-5.858-0.908l-0.107,0c-0.056,0-0.131,0.001-0.202,0.002
			c-0.33,0.005-0.657,0.02-0.98,0.038c-0.048,0.003-0.099,0.005-0.148,0.008c-0.34,0.022-0.674,0.055-0.966,0.088l-0.275,0.033
			c-0.254,0.031-0.505,0.068-0.76,0.106c-0.055,0.008-0.109,0.017-0.164,0.025c-0.249,0.041-0.492,0.085-0.797,0.143l-0.191,0.038
			c-0.233,0.047-0.465,0.095-0.727,0.154c-5.551,1.266-15.177,4.66-17.635,13.062c-0.009,0.031-0.019,0.063-0.027,0.095
			c-0.179,0.632-0.315,1.278-0.424,1.94c-0.033,0.013-0.065,0.026-0.096,0.038c-0.291,0.115-0.565,0.246-0.899,0.401
			c-0.261,0.122-0.522,0.244-0.764,0.373c-0.581,0.311-1.138,0.653-1.641,1.008c-2.683,1.885-4.701,4.402-6.009,7.51
			c-0.179,0.43-0.342,0.869-0.499,1.35c-1.574-0.044-2.255-0.068-2.536-0.08c-0.616-0.056-1.193-0.083-1.759-0.083
			c-4.049,0-7.724,1.477-10.913,4.383l-0.32,0.293C44.182,50.257,16.783,75.448,15.014,78.1c-2.364,3.554-2.638,7.241-2.638,9.705
			v18.259c0,4.332,1.989,8.039,5.181,10.363v106.345c0,5.881,4.569,11.965,12.215,11.965h168.52
			C199.659,234.738,203.824,234.738,207.072,231.468z"/>
		<path style="fill:#C5C5C5;" d="M206.23,230.626c3.235-3.256,3.21-7.174,3.194-9.515l-0.003-36.771
			c0.786-1.348,1.449-3.018,1.626-5.044c0.17-1.95-0.065-4.554-1.626-7.292v-1.233c2.447-3.2,2.295-6.681,2.235-8.058
			c-0.018-0.419-0.034-0.782-0.019-1.282c0.014-0.487,0.007-0.926-0.01-1.362l-0.014-0.265c-0.002-0.032-0.004-0.064-0.006-0.096
			c-0.031-0.516-0.082-0.98-0.137-1.335c-0.006-0.042-0.013-0.085-0.02-0.127c-0.089-0.566-0.213-1.114-0.379-1.688
			c-0.035-0.12-0.071-0.236-0.109-0.352c-0.202-0.622-0.424-1.193-0.706-1.732c-0.008-0.016-0.017-0.032-0.025-0.048
			c-0.042-0.082-0.085-0.164-0.129-0.246c1.996-2.18,3.337-5.636,2.359-11.108c-0.038-0.211-0.081-0.423-0.107-0.628
			c-0.042-0.719-0.149-1.425-0.305-2.107c-0.017-0.075-0.035-0.149-0.052-0.22c-0.02-0.081-0.042-0.162-0.064-0.242
			c-0.128-0.459-0.285-0.908-0.469-1.343c0.004-0.007,0.008-0.014,0.012-0.02c0.548-0.903,0.966-1.869,1.222-2.834
			c0.586-2.216,0.543-4.038,0.514-5.127c-0.001-0.04-0.003-0.079-0.004-0.119c0.041-0.221,0.074-0.443,0.099-0.666
			c0.286-1.775,0.146-3.599-0.435-5.347c-0.04-0.122-0.086-0.248-0.133-0.373c-0.119-0.316-0.245-0.62-0.384-0.917
			c-0.038-0.083-0.077-0.164-0.116-0.244c-0.122-0.247-0.255-0.485-0.395-0.718c-0.683-1.141-1.502-2.12-2.423-2.973v-0.88
			c6.901-3.006,7.15-10.116,7.15-11.117V90.594c0-0.321,0.001-0.625-0.005-0.896c-0.001-0.031-0.003-0.153-0.005-0.184
			c-0.02-0.472-0.038-0.929-0.083-1.394c-0.01-0.101-0.021-0.204-0.034-0.304c-0.07-0.593-0.178-1.185-0.31-1.741
			c-0.017-0.071-0.048-0.199-0.066-0.27c-0.393-1.518-1.028-2.983-1.949-4.475c-0.015-0.023-0.029-0.047-0.043-0.07
			c-0.131-0.215-0.275-0.438-0.466-0.72c-0.01-0.015-0.031-0.045-0.052-0.075c-0.132-0.19-0.265-0.386-0.401-0.575l-0.147-0.202
			c-0.002-0.003-0.068-0.093-0.071-0.096c-0.101-0.138-0.204-0.276-0.319-0.427l-0.561-0.712c-0.199-0.247-0.408-0.502-0.621-0.753
			c-1.628-1.932-6.874-7.642-14.694-16.133c-4.232-4.596-9.501-10.313-10.25-11.209c-4.018-4.805-7.918-5.391-11.905-5.588
			l-0.758-0.04c-0.271-0.016-0.674-0.04-5.209-0.157c-0.828-2.472-1.988-4.679-3.422-6.432c-1.427-1.746-3.981-4.869-8.249-6.432
			c-0.94-3.495-2.704-6.598-5.008-8.733c-1.665-1.532-9.522-7.254-17.549-7.254c-1.651,0-3.229,0.243-4.696,0.716
			c-4.142-3.792-7.778-4.216-11.729-4.348l-0.402-0.014c-1.349-0.049-2.624-0.095-3.813-0.095c-2.246,0-4.885,0.144-7.435,1.208
			c-1.626,0.678-3.478,1.803-5.161,3.348c-1.737-0.575-3.682-0.908-5.857-0.908l-0.107,0.001c-0.056,0-0.131,0.001-0.202,0.002
			c-0.33,0.005-0.657,0.019-0.98,0.037c-0.048,0.002-0.098,0.005-0.148,0.009c-0.34,0.023-0.674,0.054-0.965,0.087l-0.275,0.033
			c-0.255,0.032-0.506,0.068-0.761,0.106c-0.055,0.008-0.109,0.016-0.164,0.025c-0.25,0.04-0.493,0.085-0.798,0.143l-0.189,0.038
			c-0.234,0.047-0.465,0.095-0.728,0.154c-5.554,1.253-15.195,4.656-17.635,13.063c-0.009,0.032-0.019,0.063-0.027,0.095
			c-0.17,0.635-0.316,1.279-0.424,1.941c-0.033,0.013-0.065,0.025-0.097,0.039c-0.289,0.117-0.563,0.246-0.899,0.401
			c-0.261,0.121-0.522,0.244-0.763,0.372c-0.582,0.31-1.138,0.652-1.642,1.007c-2.683,1.885-4.7,4.402-6.008,7.51
			c-0.18,0.43-0.342,0.869-0.5,1.35c-1.574-0.043-2.255-0.067-2.537-0.079c-0.615-0.056-1.192-0.083-1.758-0.083
			c-4.05,0-7.724,1.476-10.914,4.383l-0.32,0.293c-3.118,2.863-30.517,28.055-32.287,30.707c-2.364,3.554-2.638,7.24-2.638,9.704
			v18.26c0,4.332,1.989,8.039,5.181,10.363v106.345c0,5.882,4.569,11.965,12.215,11.965h168.52
			C198.818,233.896,202.982,233.896,206.23,230.626z"/>
		<path style="fill:#B7B7B7;" d="M205.389,229.784c3.235-3.256,3.209-7.174,3.194-9.515l-0.002-36.772
			c0.786-1.347,1.449-3.018,1.625-5.043c0.169-1.95-0.065-4.554-1.625-7.292v-1.233c2.446-3.2,2.294-6.681,2.235-8.058
			c-0.018-0.42-0.035-0.782-0.019-1.282c0.013-0.487,0.007-0.926-0.011-1.362l-0.013-0.265c-0.002-0.032-0.004-0.064-0.006-0.096
			c-0.031-0.516-0.085-0.98-0.138-1.335c-0.006-0.042-0.012-0.085-0.019-0.127c-0.091-0.566-0.212-1.114-0.379-1.688
			c-0.035-0.119-0.071-0.236-0.109-0.352c-0.203-0.621-0.431-1.189-0.707-1.731c-0.008-0.016-0.016-0.032-0.025-0.048
			c-0.042-0.083-0.084-0.165-0.129-0.246c1.996-2.18,3.337-5.636,2.36-11.108c-0.038-0.211-0.081-0.423-0.107-0.628
			c-0.042-0.72-0.149-1.426-0.305-2.107c-0.018-0.075-0.035-0.149-0.052-0.22c-0.021-0.081-0.042-0.162-0.064-0.242
			c-0.129-0.459-0.285-0.908-0.47-1.343c0.004-0.007,0.008-0.014,0.012-0.02c0.549-0.903,0.967-1.869,1.222-2.834
			c0.586-2.215,0.543-4.038,0.514-5.127c-0.001-0.04-0.002-0.08-0.003-0.119c0.04-0.221,0.074-0.443,0.099-0.666
			c0.287-1.775,0.146-3.599-0.434-5.347c-0.04-0.122-0.086-0.248-0.133-0.373c-0.119-0.316-0.244-0.62-0.384-0.918
			c-0.038-0.082-0.077-0.164-0.117-0.244c-0.122-0.246-0.255-0.485-0.395-0.719c-0.683-1.141-1.502-2.12-2.423-2.972v-0.88
			c6.9-3.006,7.149-10.116,7.149-11.117V89.753c0-0.322-0.001-0.626-0.005-0.897c-0.001-0.031-0.003-0.153-0.004-0.184
			c-0.013-0.472-0.039-0.929-0.084-1.394c-0.01-0.101-0.021-0.204-0.034-0.304c-0.071-0.592-0.177-1.185-0.31-1.742
			c-0.017-0.071-0.048-0.199-0.066-0.269c-0.393-1.517-1.027-2.983-1.949-4.476c-0.014-0.023-0.028-0.047-0.043-0.07
			c-0.134-0.213-0.275-0.439-0.466-0.72c-0.01-0.015-0.03-0.045-0.051-0.075c-0.131-0.191-0.265-0.387-0.402-0.575l-0.147-0.202
			c-0.002-0.003-0.068-0.093-0.07-0.096c-0.102-0.138-0.204-0.276-0.32-0.427l-0.561-0.712c-0.199-0.247-0.409-0.502-0.621-0.753
			c-1.628-1.932-6.875-7.642-14.695-16.133c-4.232-4.596-9.501-10.314-10.251-11.21c-4.018-4.805-7.918-5.39-11.905-5.587
			l-0.757-0.04c-0.272-0.016-0.674-0.04-5.209-0.157c-0.828-2.473-1.988-4.68-3.421-6.432c-1.428-1.746-3.981-4.869-8.249-6.432
			c-0.94-3.495-2.704-6.599-5.009-8.733c-1.665-1.532-9.522-7.254-17.548-7.254c-1.652,0-3.229,0.242-4.697,0.716
			c-4.141-3.791-7.777-4.216-11.729-4.348l-0.402-0.014c-1.35-0.049-2.623-0.095-3.813-0.095c-2.246,0-4.886,0.143-7.434,1.208
			c-1.627,0.678-3.478,1.802-5.162,3.348c-1.736-0.575-3.682-0.908-5.857-0.908l-0.108,0c-0.056,0-0.131,0.001-0.202,0.002
			c-0.33,0.006-0.657,0.02-0.98,0.037c-0.049,0.003-0.099,0.006-0.148,0.009c-0.34,0.023-0.674,0.055-0.965,0.088l-0.275,0.032
			c-0.255,0.032-0.506,0.068-0.761,0.106c-0.055,0.008-0.11,0.017-0.164,0.026c-0.249,0.041-0.492,0.085-0.797,0.143l-0.189,0.038
			c-0.234,0.047-0.465,0.096-0.728,0.154c-5.551,1.267-15.194,4.656-17.635,13.062c-0.009,0.032-0.018,0.064-0.027,0.095
			c-0.174,0.634-0.316,1.278-0.424,1.941c-0.033,0.013-0.065,0.026-0.097,0.039c-0.29,0.116-0.564,0.246-0.899,0.401
			c-0.262,0.122-0.523,0.244-0.764,0.373c-0.581,0.311-1.138,0.652-1.642,1.008c-2.683,1.885-4.7,4.402-6.009,7.51
			c-0.18,0.43-0.342,0.869-0.499,1.351c-1.574-0.044-2.255-0.067-2.537-0.08c-0.615-0.056-1.192-0.083-1.758-0.083
			c-4.051,0-7.725,1.477-10.915,4.383l-0.32,0.292C42.499,48.573,15.1,73.764,13.33,76.416c-2.365,3.554-2.638,7.241-2.638,9.705
			v18.26c0,4.332,1.989,8.039,5.181,10.363v106.344c0,5.882,4.569,11.965,12.215,11.965h168.52
			C197.976,233.054,202.141,233.054,205.389,229.784z"/>
		<path style="fill:#A8A8A8;" d="M204.546,228.942c3.235-3.257,3.209-7.174,3.194-9.515l-0.002-36.772
			c0.786-1.347,1.449-3.018,1.625-5.043c0.17-1.95-0.065-4.555-1.625-7.292v-1.232c2.446-3.2,2.295-6.681,2.235-8.058
			c-0.018-0.42-0.033-0.783-0.018-1.283c0.014-0.486,0.006-0.926-0.011-1.362l-0.014-0.264c-0.001-0.033-0.003-0.064-0.005-0.097
			c-0.035-0.516-0.086-0.98-0.138-1.335c-0.006-0.042-0.012-0.085-0.019-0.127c-0.088-0.566-0.212-1.114-0.38-1.688
			c-0.036-0.12-0.072-0.236-0.109-0.352c-0.203-0.622-0.431-1.189-0.707-1.732c-0.008-0.016-0.016-0.032-0.024-0.048
			c-0.042-0.082-0.085-0.164-0.129-0.246c1.996-2.18,3.337-5.636,2.36-11.108c-0.038-0.211-0.081-0.423-0.107-0.628
			c-0.042-0.719-0.15-1.426-0.305-2.106c-0.017-0.076-0.034-0.149-0.052-0.221c-0.02-0.081-0.042-0.162-0.064-0.242
			c-0.128-0.459-0.286-0.907-0.47-1.343c0.004-0.006,0.008-0.013,0.013-0.021c0.557-0.897,0.966-1.868,1.222-2.833
			c0.587-2.216,0.543-4.038,0.514-5.128c-0.001-0.039-0.003-0.08-0.004-0.119c0.041-0.221,0.074-0.443,0.099-0.666
			c0.287-1.776,0.146-3.599-0.434-5.347c-0.04-0.122-0.086-0.248-0.133-0.373c-0.118-0.317-0.245-0.621-0.384-0.918
			c-0.039-0.083-0.077-0.164-0.117-0.244c-0.123-0.247-0.255-0.486-0.395-0.718c-0.683-1.141-1.502-2.12-2.423-2.973v-0.88
			c6.9-3.006,7.15-10.116,7.15-11.117V88.91c0-0.322,0.001-0.626-0.005-0.897c-0.001-0.03-0.004-0.152-0.005-0.183
			c-0.013-0.472-0.038-0.929-0.083-1.394c-0.01-0.101-0.022-0.204-0.034-0.305c-0.073-0.592-0.178-1.185-0.31-1.741
			c-0.017-0.072-0.047-0.199-0.066-0.27c-0.393-1.517-1.017-2.99-1.948-4.475c-0.015-0.023-0.029-0.047-0.043-0.07
			c-0.134-0.213-0.274-0.438-0.466-0.721c-0.01-0.015-0.031-0.044-0.052-0.074c-0.133-0.19-0.266-0.387-0.402-0.575l-0.147-0.202
			c-0.002-0.003-0.069-0.093-0.071-0.096c-0.102-0.138-0.204-0.276-0.319-0.426l-0.562-0.713c-0.198-0.247-0.408-0.502-0.621-0.753
			c-1.627-1.932-6.874-7.643-14.694-16.133c-4.232-4.596-9.501-10.314-10.251-11.21c-4.018-4.806-7.918-5.391-11.905-5.588
			l-0.758-0.04c-0.272-0.016-0.674-0.04-5.209-0.157c-0.828-2.472-1.987-4.679-3.422-6.432c-1.428-1.746-3.981-4.869-8.249-6.432
			c-0.939-3.495-2.703-6.598-5.008-8.734c-1.664-1.532-9.522-7.254-17.548-7.254c-1.652,0-3.229,0.242-4.697,0.716
			c-4.141-3.792-7.778-4.215-11.729-4.348l-0.401-0.015c-1.35-0.048-2.624-0.095-3.813-0.095c-2.245,0-4.886,0.144-7.434,1.208
			c-1.627,0.678-3.478,1.802-5.162,3.348c-1.737-0.575-3.681-0.908-5.857-0.908h-0.107c-0.057,0-0.132,0.001-0.202,0.003
			c-0.329,0.007-0.657,0.019-0.979,0.037c-0.049,0.003-0.099,0.006-0.149,0.009c-0.34,0.023-0.674,0.055-0.965,0.088l-0.276,0.032
			c-0.254,0.032-0.505,0.067-0.761,0.106c-0.055,0.008-0.109,0.017-0.164,0.025c-0.249,0.04-0.492,0.085-0.797,0.143l-0.189,0.038
			c-0.233,0.046-0.465,0.095-0.727,0.154c-5.552,1.267-15.194,4.655-17.635,13.063c-0.009,0.032-0.019,0.063-0.027,0.095
			c-0.172,0.635-0.316,1.278-0.425,1.941c-0.032,0.013-0.065,0.026-0.096,0.038c-0.29,0.116-0.564,0.245-0.899,0.401
			c-0.261,0.122-0.522,0.244-0.764,0.373c-0.582,0.31-1.138,0.652-1.642,1.007c-2.683,1.885-4.706,4.399-6.009,7.51
			c-0.18,0.43-0.342,0.869-0.499,1.35c-1.574-0.044-2.255-0.067-2.537-0.08c-0.615-0.056-1.192-0.083-1.758-0.083
			c-4.05,0-7.724,1.476-10.914,4.382l-0.32,0.293c-3.118,2.863-30.517,28.055-32.287,30.707c-2.364,3.554-2.638,7.241-2.638,9.705
			v18.26c0,4.332,1.988,8.039,5.18,10.364v106.344c0,5.882,4.569,11.965,12.216,11.965h168.519
			C197.134,232.212,201.298,232.212,204.546,228.942z"/>
		<path style="fill:#9A9A9A;" d="M203.704,228.1c3.235-3.256,3.21-7.174,3.194-9.515l-0.003-36.771
			c0.786-1.347,1.449-3.018,1.626-5.043c0.17-1.95-0.065-4.554-1.626-7.291v-1.233c2.446-3.2,2.295-6.681,2.235-8.057
			c-0.018-0.42-0.035-0.782-0.018-1.282c0.014-0.487,0.007-0.926-0.011-1.362l-0.013-0.265c-0.002-0.032-0.004-0.064-0.005-0.096
			c-0.032-0.516-0.086-0.98-0.138-1.335c-0.006-0.042-0.012-0.085-0.019-0.127c-0.089-0.566-0.211-1.115-0.38-1.688
			c-0.035-0.119-0.071-0.236-0.109-0.352c-0.201-0.622-0.437-1.186-0.707-1.732c-0.008-0.016-0.016-0.032-0.024-0.048
			c-0.041-0.082-0.085-0.164-0.129-0.245c1.996-2.18,3.337-5.636,2.36-11.108c-0.038-0.211-0.081-0.423-0.107-0.628
			c-0.042-0.719-0.146-1.426-0.304-2.107c-0.017-0.075-0.034-0.149-0.052-0.22c-0.02-0.081-0.042-0.161-0.065-0.242
			c-0.129-0.458-0.285-0.908-0.471-1.343c0.005-0.007,0.009-0.014,0.013-0.021c0.549-0.902,0.967-1.868,1.222-2.833
			c0.586-2.215,0.543-4.038,0.514-5.128c-0.001-0.039-0.002-0.08-0.004-0.12c0.041-0.22,0.074-0.443,0.099-0.665
			c0.288-1.775,0.147-3.599-0.434-5.347c-0.04-0.122-0.086-0.248-0.133-0.373c-0.119-0.316-0.246-0.619-0.384-0.917
			c-0.039-0.083-0.078-0.163-0.117-0.243c-0.123-0.247-0.255-0.486-0.395-0.719c-0.683-1.141-1.502-2.12-2.423-2.972v-0.88
			c6.901-3.006,7.15-10.115,7.15-11.117V88.068c0-0.322-0.001-0.625-0.006-0.897c-0.001-0.03-0.003-0.152-0.004-0.183
			c-0.009-0.472-0.039-0.929-0.084-1.395c-0.01-0.101-0.022-0.204-0.034-0.304c-0.073-0.592-0.177-1.185-0.31-1.741
			c-0.017-0.071-0.047-0.199-0.065-0.269c-0.394-1.518-1.027-2.983-1.949-4.476c-0.015-0.023-0.029-0.047-0.043-0.07
			c-0.134-0.213-0.275-0.439-0.466-0.721c-0.01-0.015-0.031-0.045-0.052-0.075c-0.13-0.191-0.265-0.386-0.401-0.575l-0.147-0.202
			c-0.003-0.002-0.069-0.093-0.071-0.096c-0.102-0.138-0.204-0.276-0.319-0.427l-0.561-0.712c-0.199-0.246-0.409-0.501-0.621-0.753
			c-1.627-1.931-6.874-7.642-14.694-16.133c-4.232-4.596-9.501-10.314-10.251-11.21c-4.018-4.805-7.918-5.39-11.905-5.588
			l-0.757-0.04c-0.273-0.016-0.675-0.039-5.21-0.156c-0.828-2.473-1.988-4.68-3.421-6.432c-1.428-1.746-3.981-4.869-8.249-6.432
			c-0.939-3.495-2.703-6.599-5.008-8.734c-1.665-1.532-9.523-7.254-17.549-7.254c-1.652,0-3.229,0.242-4.696,0.716
			c-4.142-3.791-7.778-4.216-11.729-4.348l-0.403-0.015c-1.349-0.049-2.624-0.095-3.812-0.095c-2.246,0-4.886,0.143-7.435,1.208
			c-1.626,0.679-3.478,1.803-5.161,3.348c-1.737-0.575-3.682-0.909-5.858-0.909l-0.107,0c-0.056,0-0.131,0.001-0.202,0.002
			c-0.33,0.005-0.656,0.019-0.98,0.037c-0.049,0.003-0.098,0.005-0.148,0.009c-0.34,0.023-0.674,0.054-0.966,0.087l-0.275,0.033
			c-0.254,0.032-0.504,0.068-0.76,0.106c-0.055,0.008-0.109,0.017-0.165,0.026c-0.249,0.041-0.492,0.084-0.796,0.143l-0.19,0.037
			c-0.234,0.047-0.465,0.095-0.727,0.154C81.906,15,72.262,18.39,69.822,26.796c-0.01,0.032-0.019,0.064-0.027,0.095
			c-0.177,0.633-0.315,1.278-0.424,1.941c-0.033,0.013-0.065,0.026-0.097,0.039c-0.29,0.116-0.564,0.246-0.899,0.401
			c-0.261,0.122-0.522,0.244-0.764,0.373c-0.581,0.31-1.138,0.652-1.641,1.007c-2.684,1.885-4.701,4.402-6.01,7.51
			c-0.179,0.43-0.342,0.869-0.499,1.35c-1.574-0.044-2.255-0.067-2.537-0.079c-0.616-0.056-1.193-0.083-1.759-0.083
			c-4.05,0-7.724,1.476-10.914,4.383l-0.32,0.293c-3.118,2.863-30.517,28.055-32.287,30.707c-2.364,3.554-2.638,7.24-2.638,9.705
			v18.259c0,4.332,1.989,8.038,5.18,10.363v106.345c0,5.882,4.569,11.966,12.216,11.966h168.52
			C196.292,231.37,200.456,231.37,203.704,228.1z"/>
		<path style="fill:#8B8B8B;" d="M202.862,227.257c3.235-3.256,3.209-7.174,3.194-9.514l-0.003-36.771
			c0.785-1.347,1.449-3.018,1.626-5.044c0.17-1.949-0.065-4.554-1.626-7.291v-1.234c2.446-3.199,2.294-6.681,2.234-8.057
			c-0.018-0.419-0.034-0.782-0.019-1.282c0.014-0.487,0.007-0.926-0.011-1.362l-0.013-0.265c-0.002-0.032-0.004-0.063-0.006-0.095
			c-0.031-0.516-0.084-0.98-0.138-1.335c-0.006-0.042-0.013-0.085-0.02-0.127c-0.089-0.567-0.212-1.115-0.379-1.688
			c-0.035-0.12-0.071-0.237-0.109-0.353c-0.202-0.622-0.433-1.188-0.706-1.732c-0.008-0.017-0.016-0.032-0.024-0.048
			c-0.042-0.082-0.085-0.164-0.129-0.245c1.996-2.18,3.337-5.636,2.36-11.108c-0.038-0.211-0.081-0.424-0.107-0.628
			c-0.042-0.719-0.149-1.425-0.305-2.106c-0.017-0.075-0.034-0.149-0.052-0.22c-0.02-0.081-0.042-0.162-0.064-0.242
			c-0.129-0.459-0.285-0.908-0.47-1.343c0.004-0.008,0.008-0.014,0.013-0.021c0.548-0.903,0.966-1.869,1.222-2.834
			c0.586-2.215,0.543-4.038,0.514-5.128c-0.001-0.039-0.002-0.079-0.004-0.119c0.041-0.221,0.074-0.443,0.099-0.666
			c0.287-1.775,0.146-3.599-0.434-5.346c-0.041-0.122-0.087-0.248-0.133-0.373c-0.119-0.316-0.246-0.619-0.384-0.917
			c-0.038-0.082-0.077-0.164-0.116-0.244c-0.122-0.247-0.255-0.485-0.395-0.719c-0.682-1.141-1.502-2.12-2.423-2.972v-0.88
			c6.9-3.006,7.149-10.116,7.149-11.117V87.226c0-0.322,0-0.625-0.005-0.897c0-0.031-0.003-0.152-0.004-0.183
			c-0.013-0.472-0.038-0.93-0.084-1.395c-0.01-0.101-0.022-0.204-0.034-0.304c-0.071-0.592-0.178-1.185-0.31-1.741
			c-0.017-0.072-0.048-0.199-0.066-0.27c-0.394-1.517-1.028-2.983-1.949-4.475c-0.015-0.023-0.029-0.047-0.043-0.07
			c-0.131-0.216-0.275-0.439-0.466-0.721c-0.01-0.015-0.031-0.045-0.052-0.075c-0.131-0.191-0.265-0.386-0.402-0.576l-0.148-0.202
			c-0.001-0.002-0.068-0.093-0.07-0.096c-0.102-0.137-0.204-0.275-0.32-0.427l-0.561-0.712c-0.2-0.247-0.409-0.502-0.622-0.753
			c-1.627-1.932-6.874-7.642-14.693-16.133c-4.232-4.596-9.502-10.314-10.251-11.21c-4.019-4.804-7.918-5.39-11.905-5.587
			l-0.757-0.04c-0.272-0.017-0.675-0.04-5.21-0.157c-0.828-2.473-1.988-4.68-3.421-6.432c-1.428-1.746-3.982-4.869-8.249-6.432
			c-0.939-3.495-2.703-6.598-5.008-8.733c-1.665-1.532-9.523-7.254-17.549-7.254c-1.652,0-3.228,0.242-4.696,0.716
			c-4.142-3.791-7.778-4.216-11.729-4.349l-0.402-0.014c-1.35-0.049-2.623-0.095-3.813-0.095c-2.246,0-4.885,0.144-7.434,1.208
			c-1.627,0.678-3.478,1.803-5.161,3.347c-1.737-0.575-3.682-0.908-5.857-0.908l-0.108,0.001c-0.056,0-0.131,0.001-0.201,0.002
			c-0.33,0.005-0.657,0.02-0.981,0.037c-0.048,0.002-0.098,0.005-0.148,0.009c-0.339,0.023-0.673,0.054-0.965,0.087l-0.275,0.033
			c-0.255,0.032-0.506,0.068-0.761,0.106c-0.055,0.008-0.109,0.017-0.164,0.025c-0.25,0.04-0.493,0.085-0.797,0.142l-0.189,0.038
			c-0.234,0.047-0.466,0.096-0.728,0.155c-5.551,1.266-15.224,4.647-17.635,13.061c-0.009,0.032-0.018,0.064-0.027,0.096
			c-0.175,0.633-0.316,1.278-0.425,1.94c-0.033,0.013-0.064,0.026-0.096,0.039c-0.29,0.116-0.564,0.246-0.899,0.401
			c-0.262,0.122-0.522,0.244-0.764,0.373c-0.581,0.31-1.138,0.651-1.642,1.007c-2.683,1.886-4.701,4.402-6.009,7.511
			c-0.179,0.43-0.342,0.869-0.5,1.35c-1.573-0.044-2.255-0.067-2.536-0.08c-0.615-0.056-1.192-0.083-1.758-0.083
			c-4.05,0-7.724,1.477-10.915,4.383l-0.319,0.293c-3.118,2.863-30.517,28.055-32.287,30.707c-2.365,3.554-2.639,7.24-2.639,9.704
			v18.26c0,4.332,1.99,8.039,5.181,10.363v106.345c0,5.882,4.569,11.965,12.215,11.965h168.52
			C195.45,230.528,199.614,230.528,202.862,227.257z"/>
		<path style="fill:#7D7D7D;" d="M202.02,226.416c3.235-3.256,3.21-7.174,3.194-9.515l-0.002-36.772
			c0.785-1.347,1.449-3.018,1.626-5.042c0.169-1.95-0.065-4.554-1.626-7.292v-1.233c2.446-3.2,2.294-6.68,2.234-8.057
			c-0.018-0.42-0.033-0.783-0.019-1.283c0.015-0.486,0.006-0.926-0.011-1.362l-0.013-0.264c-0.002-0.033-0.004-0.064-0.006-0.096
			c-0.031-0.516-0.085-0.98-0.138-1.335c-0.006-0.043-0.013-0.085-0.019-0.127c-0.091-0.566-0.212-1.115-0.379-1.688
			c-0.035-0.12-0.071-0.236-0.109-0.353c-0.202-0.621-0.428-1.191-0.706-1.731c-0.009-0.017-0.017-0.032-0.025-0.048
			c-0.043-0.082-0.085-0.165-0.129-0.246c1.996-2.18,3.337-5.636,2.359-11.108c-0.037-0.211-0.081-0.423-0.106-0.628
			c-0.043-0.719-0.15-1.425-0.305-2.106c-0.018-0.076-0.034-0.15-0.052-0.221c-0.021-0.08-0.042-0.162-0.064-0.241
			c-0.128-0.459-0.285-0.908-0.47-1.344c0.004-0.006,0.008-0.013,0.012-0.02c0.549-0.902,0.967-1.869,1.222-2.833
			c0.586-2.216,0.548-4.038,0.514-5.128c-0.001-0.04-0.002-0.08-0.004-0.12c0.041-0.221,0.074-0.442,0.099-0.666
			c0.286-1.775,0.146-3.599-0.434-5.346c-0.041-0.122-0.087-0.249-0.133-0.374c-0.119-0.316-0.246-0.619-0.384-0.917
			c-0.039-0.083-0.078-0.165-0.117-0.244c-0.123-0.246-0.254-0.485-0.394-0.718c-0.683-1.141-1.502-2.12-2.423-2.972v-0.88
			c6.9-3.006,7.149-10.115,7.149-11.117V86.384c0-0.322-0.003-0.626-0.005-0.897c0-0.031-0.003-0.153-0.004-0.183
			c-0.017-0.473-0.038-0.93-0.084-1.394c-0.01-0.101-0.022-0.204-0.034-0.304c-0.071-0.593-0.176-1.186-0.31-1.742
			c-0.017-0.071-0.047-0.199-0.066-0.269c-0.388-1.519-1.03-2.982-1.949-4.476c-0.014-0.023-0.028-0.046-0.043-0.07
			c-0.134-0.213-0.274-0.439-0.466-0.72c-0.01-0.015-0.03-0.045-0.052-0.076c-0.131-0.191-0.265-0.386-0.401-0.575l-0.148-0.203
			c-0.002-0.002-0.068-0.092-0.07-0.095c-0.101-0.138-0.204-0.276-0.32-0.427l-0.561-0.713c-0.199-0.246-0.409-0.502-0.621-0.754
			c-1.628-1.931-6.875-7.642-14.695-16.133c-4.232-4.596-9.501-10.314-10.251-11.21c-4.018-4.804-7.917-5.39-11.905-5.587
			l-0.758-0.04c-0.271-0.016-0.674-0.041-5.209-0.157c-0.828-2.473-1.987-4.68-3.421-6.432c-1.428-1.746-3.981-4.869-8.249-6.432
			c-0.939-3.495-2.703-6.599-5.008-8.734c-1.665-1.532-9.522-7.253-17.548-7.253c-1.652,0-3.228,0.242-4.696,0.715
			c-4.141-3.791-7.778-4.215-11.729-4.348l-0.402-0.014c-1.35-0.05-2.623-0.096-3.812-0.096c-2.246,0-4.886,0.144-7.435,1.208
			c-1.627,0.678-3.478,1.802-5.162,3.348c-1.736-0.575-3.682-0.908-5.857-0.908h-0.108c-0.056,0-0.131,0.001-0.202,0.002
			c-0.329,0.007-0.657,0.021-0.98,0.037c-0.049,0.002-0.098,0.006-0.148,0.009c-0.339,0.023-0.673,0.054-0.965,0.087l-0.275,0.033
			c-0.255,0.032-0.506,0.069-0.761,0.106c-0.055,0.008-0.109,0.016-0.165,0.025c-0.248,0.04-0.492,0.085-0.796,0.143l-0.189,0.038
			c-0.234,0.047-0.466,0.096-0.728,0.155c-5.552,1.266-15.252,4.639-17.636,13.062c-0.009,0.032-0.018,0.063-0.026,0.095
			c-0.175,0.633-0.316,1.278-0.425,1.94c-0.033,0.013-0.064,0.026-0.097,0.039c-0.29,0.115-0.563,0.246-0.898,0.401
			c-0.261,0.122-0.523,0.244-0.764,0.373c-0.581,0.31-1.138,0.652-1.642,1.007c-2.683,1.885-4.7,4.401-6.008,7.51
			c-0.18,0.43-0.342,0.869-0.5,1.351c-1.574-0.045-2.255-0.067-2.536-0.08c-0.615-0.056-1.192-0.083-1.758-0.083
			c-4.051,0-7.725,1.477-10.914,4.383l-0.32,0.292C39.13,45.205,11.731,70.396,9.961,73.049c-2.364,3.553-2.638,7.24-2.638,9.704
			v18.259c0,4.332,1.99,8.038,5.181,10.364V217.72c0,5.882,4.569,11.965,12.215,11.965h168.519
			C194.607,229.686,198.772,229.686,202.02,226.416z"/>
		<path style="fill:#6E6E6E;" d="M201.178,225.574c3.235-3.256,3.209-7.174,3.194-9.515l-0.002-36.772
			c0.785-1.347,1.448-3.018,1.625-5.043c0.17-1.949-0.065-4.555-1.625-7.291v-1.234c2.446-3.199,2.294-6.68,2.234-8.057
			c-0.018-0.419-0.033-0.782-0.018-1.282c0.014-0.487,0.006-0.926-0.011-1.362l-0.014-0.265c-0.001-0.033-0.003-0.064-0.005-0.097
			c-0.032-0.516-0.086-0.979-0.138-1.335c-0.006-0.042-0.013-0.084-0.019-0.127c-0.088-0.566-0.21-1.115-0.379-1.688
			c-0.035-0.12-0.072-0.236-0.11-0.353c-0.204-0.621-0.43-1.189-0.706-1.732c-0.008-0.016-0.017-0.032-0.025-0.048
			c-0.043-0.081-0.085-0.165-0.128-0.245c1.995-2.18,3.337-5.637,2.359-11.108c-0.038-0.212-0.081-0.423-0.107-0.628
			c-0.042-0.72-0.147-1.427-0.304-2.106c-0.018-0.076-0.034-0.15-0.052-0.221c-0.021-0.081-0.042-0.162-0.064-0.242
			c-0.128-0.459-0.285-0.907-0.47-1.343c0.004-0.006,0.008-0.013,0.012-0.021c0.549-0.902,0.967-1.868,1.222-2.833
			c0.586-2.215,0.543-4.039,0.514-5.128c-0.001-0.04-0.002-0.08-0.004-0.12c0.041-0.221,0.074-0.443,0.099-0.666
			c0.287-1.775,0.146-3.599-0.434-5.347c-0.041-0.122-0.087-0.248-0.133-0.373c-0.117-0.317-0.246-0.62-0.385-0.917
			c-0.038-0.083-0.077-0.164-0.116-0.243c-0.122-0.247-0.256-0.486-0.395-0.719c-0.684-1.141-1.503-2.12-2.423-2.973v-0.88
			c6.901-3.006,7.15-10.116,7.15-11.117V85.543c0-0.322-0.001-0.626-0.006-0.898c-0.001-0.03-0.004-0.152-0.004-0.183
			c-0.01-0.472-0.039-0.929-0.084-1.394c-0.01-0.101-0.021-0.204-0.033-0.305c-0.07-0.592-0.18-1.184-0.311-1.741
			c-0.017-0.071-0.048-0.198-0.066-0.269c-0.393-1.517-1.027-2.983-1.949-4.475c-0.014-0.023-0.029-0.047-0.042-0.07
			c-0.131-0.215-0.275-0.438-0.467-0.721c-0.01-0.015-0.031-0.045-0.051-0.075c-0.13-0.191-0.266-0.386-0.402-0.575l-0.147-0.203
			c-0.002-0.001-0.069-0.093-0.07-0.095c-0.102-0.138-0.204-0.276-0.32-0.426l-0.561-0.713c-0.199-0.247-0.409-0.501-0.621-0.753
			c-1.627-1.932-6.875-7.642-14.693-16.133c-4.233-4.597-9.502-10.314-10.251-11.21c-4.018-4.805-7.918-5.391-11.905-5.588
			l-0.758-0.04c-0.272-0.016-0.674-0.04-5.209-0.157c-0.828-2.472-1.987-4.679-3.421-6.431c-1.428-1.746-3.982-4.869-8.249-6.433
			c-0.939-3.495-2.703-6.598-5.008-8.734c-1.665-1.532-9.522-7.253-17.549-7.253c-1.651,0-3.228,0.241-4.696,0.715
			c-4.142-3.791-7.777-4.215-11.729-4.348l-0.402-0.015c-1.35-0.049-2.624-0.094-3.813-0.094c-2.246,0-4.886,0.143-7.435,1.207
			c-1.626,0.678-3.477,1.803-5.161,3.348c-1.737-0.575-3.682-0.908-5.857-0.908h-0.107c-0.056,0-0.132,0.002-0.202,0.002
			c-0.33,0.005-0.656,0.017-0.98,0.037c-0.048,0.003-0.099,0.006-0.148,0.009c-0.34,0.023-0.674,0.054-0.965,0.088l-0.276,0.033
			c-0.254,0.032-0.505,0.066-0.76,0.106c-0.055,0.008-0.11,0.017-0.164,0.025c-0.249,0.041-0.493,0.085-0.797,0.143l-0.19,0.038
			c-0.233,0.047-0.465,0.096-0.727,0.155c-5.551,1.266-15.224,4.647-17.636,13.062c-0.009,0.031-0.018,0.063-0.027,0.095
			c-0.176,0.634-0.316,1.278-0.425,1.941c-0.033,0.012-0.065,0.025-0.096,0.038c-0.29,0.114-0.564,0.246-0.899,0.401
			c-0.262,0.122-0.523,0.244-0.764,0.372c-0.581,0.311-1.138,0.653-1.641,1.008c-2.683,1.885-4.701,4.402-6.009,7.51
			c-0.179,0.43-0.342,0.869-0.499,1.351c-1.574-0.045-2.255-0.067-2.537-0.08c-0.616-0.056-1.193-0.083-1.758-0.083
			c-4.05,0-7.725,1.477-10.914,4.383l-0.32,0.292C38.288,44.362,10.889,69.554,9.12,72.206c-2.364,3.554-2.638,7.241-2.638,9.705
			v18.26c0,4.332,1.989,8.038,5.18,10.363v106.344c0,5.882,4.569,11.965,12.216,11.965h168.52
			C193.766,228.843,197.93,228.843,201.178,225.574z"/>
		<path style="fill:#606060;" d="M200.336,224.732c3.235-3.256,3.209-7.174,3.194-9.515l-0.003-36.771
			c0.786-1.347,1.449-3.018,1.626-5.044c0.17-1.95-0.065-4.554-1.626-7.292v-1.233c2.447-3.2,2.295-6.681,2.235-8.057
			c-0.019-0.42-0.035-0.783-0.019-1.283c0.013-0.486,0.007-0.926-0.011-1.362l-0.014-0.265c-0.002-0.032-0.004-0.064-0.005-0.096
			c-0.033-0.516-0.082-0.98-0.138-1.335c-0.006-0.042-0.013-0.085-0.019-0.127c-0.09-0.566-0.213-1.114-0.38-1.688
			c-0.035-0.12-0.071-0.236-0.109-0.352c-0.202-0.622-0.433-1.189-0.706-1.732c-0.009-0.016-0.017-0.032-0.025-0.048
			c-0.042-0.082-0.085-0.164-0.129-0.245c1.996-2.18,3.337-5.636,2.36-11.108c-0.037-0.211-0.081-0.423-0.107-0.628
			c-0.042-0.719-0.145-1.426-0.305-2.106c-0.017-0.075-0.034-0.149-0.052-0.22c-0.021-0.081-0.042-0.161-0.064-0.242
			c-0.128-0.459-0.286-0.908-0.47-1.343c0.004-0.007,0.008-0.014,0.013-0.02c0.554-0.899,0.969-1.868,1.222-2.833
			c0.592-2.214,0.543-4.038,0.514-5.128c-0.001-0.04-0.002-0.08-0.004-0.12c0.041-0.221,0.074-0.443,0.099-0.665
			c0.287-1.775,0.142-3.597-0.435-5.347c-0.04-0.122-0.085-0.248-0.133-0.373c-0.118-0.316-0.245-0.62-0.384-0.917
			c-0.038-0.083-0.077-0.164-0.116-0.244c-0.122-0.247-0.254-0.487-0.395-0.719c-0.675-1.145-1.502-2.12-2.423-2.972v-0.88
			c6.901-3.006,7.15-10.116,7.15-11.117V84.7c0-0.322-0.001-0.625-0.006-0.897c-0.001-0.03-0.003-0.152-0.004-0.183
			c-0.012-0.472-0.039-0.929-0.084-1.395c-0.01-0.1-0.021-0.204-0.034-0.304c-0.069-0.592-0.176-1.185-0.31-1.741
			c-0.017-0.071-0.048-0.199-0.066-0.269c-0.393-1.518-1.031-2.981-1.949-4.476c-0.014-0.023-0.029-0.047-0.043-0.07
			c-0.133-0.214-0.277-0.438-0.466-0.721c-0.01-0.015-0.031-0.045-0.051-0.075c-0.13-0.192-0.266-0.386-0.402-0.575l-0.147-0.202
			c-0.002-0.002-0.069-0.093-0.071-0.096c-0.102-0.138-0.204-0.276-0.319-0.427l-0.561-0.712c-0.199-0.247-0.409-0.501-0.621-0.753
			c-1.627-1.931-6.874-7.642-14.694-16.133c-4.232-4.596-9.5-10.315-10.251-11.21c-4.007-4.814-7.918-5.39-11.905-5.588
			l-0.757-0.039c-0.272-0.017-0.675-0.04-5.21-0.157c-0.828-2.472-1.988-4.679-3.421-6.432c-1.428-1.746-3.982-4.869-8.249-6.432
			c-0.939-3.495-2.703-6.599-5.008-8.734c-1.665-1.532-9.522-7.254-17.548-7.254c-1.652,0-3.228,0.242-4.696,0.716
			c-4.142-3.791-7.778-4.216-11.729-4.348l-0.402-0.015c-1.349-0.049-2.624-0.095-3.813-0.095c-2.246,0-4.885,0.143-7.434,1.207
			c-1.627,0.678-3.478,1.803-5.162,3.348c-1.737-0.575-3.682-0.909-5.858-0.909l-0.107,0c-0.056,0-0.131,0.001-0.202,0.002
			c-0.33,0.004-0.657,0.017-0.98,0.037c-0.048,0.003-0.098,0.005-0.148,0.009c-0.34,0.023-0.674,0.054-0.965,0.088L86.728,9.9
			c-0.254,0.032-0.505,0.066-0.761,0.106c-0.055,0.008-0.109,0.017-0.164,0.025c-0.249,0.041-0.492,0.085-0.797,0.143l-0.19,0.038
			c-0.234,0.047-0.465,0.095-0.727,0.154c-5.551,1.267-15.224,4.647-17.635,13.062c-0.01,0.032-0.019,0.063-0.027,0.095
			c-0.174,0.634-0.315,1.278-0.424,1.94c-0.033,0.013-0.065,0.026-0.096,0.039c-0.289,0.117-0.566,0.242-0.899,0.401
			c-0.263,0.118-0.522,0.244-0.764,0.372c-0.581,0.311-1.138,0.652-1.642,1.007c-2.683,1.885-4.701,4.402-6.009,7.51
			c-0.18,0.43-0.342,0.869-0.5,1.35c-1.574-0.044-2.255-0.067-2.536-0.079c-0.616-0.056-1.193-0.083-1.759-0.083
			c-4.05,0-7.724,1.477-10.913,4.383l-0.32,0.293c-3.118,2.863-30.517,28.055-32.287,30.707c-2.364,3.554-2.638,7.24-2.638,9.705
			v18.26c0,4.332,1.989,8.038,5.18,10.363v106.344c0,5.882,4.569,11.965,12.216,11.965h168.52
			C192.923,228.001,197.087,228.001,200.336,224.732z"/>
	</g>
	<path style="fill:#FFFFFF;" d="M200.336,224.732c3.235-3.256,3.209-7.174,3.194-9.515l-0.003-36.771
		c0.786-1.347,1.449-3.018,1.626-5.044c0.17-1.95-0.065-4.554-1.626-7.292v-1.233c2.447-3.2,2.295-6.681,2.235-8.057
		c-0.019-0.42-0.035-0.783-0.019-1.283c0.013-0.486,0.007-0.926-0.011-1.362l-0.014-0.265c-0.002-0.032-0.004-0.064-0.005-0.096
		c-0.033-0.516-0.082-0.98-0.138-1.335c-0.006-0.042-0.013-0.085-0.019-0.127c-0.09-0.566-0.213-1.114-0.38-1.688
		c-0.035-0.12-0.071-0.236-0.109-0.352c-0.202-0.622-0.433-1.189-0.706-1.732c-0.009-0.016-0.017-0.032-0.025-0.048
		c-0.042-0.082-0.085-0.164-0.129-0.245c1.996-2.18,3.337-5.636,2.36-11.108c-0.037-0.211-0.081-0.423-0.107-0.628
		c-0.042-0.719-0.145-1.426-0.305-2.106c-0.017-0.075-0.034-0.149-0.052-0.22c-0.021-0.081-0.042-0.161-0.064-0.242
		c-0.128-0.459-0.286-0.908-0.47-1.343c0.004-0.007,0.008-0.014,0.013-0.02c0.554-0.899,0.969-1.868,1.222-2.833
		c0.592-2.214,0.543-4.038,0.514-5.128c-0.001-0.04-0.002-0.08-0.004-0.12c0.041-0.221,0.074-0.443,0.099-0.665
		c0.287-1.775,0.142-3.597-0.435-5.347c-0.04-0.122-0.085-0.248-0.133-0.373c-0.118-0.316-0.245-0.62-0.384-0.917
		c-0.038-0.083-0.077-0.164-0.116-0.244c-0.122-0.247-0.254-0.487-0.395-0.719c-0.675-1.145-1.502-2.12-2.423-2.972v-0.88
		c6.901-3.006,7.15-10.116,7.15-11.117V84.7c0-0.322-0.001-0.625-0.006-0.897c-0.001-0.03-0.003-0.152-0.004-0.183
		c-0.012-0.472-0.039-0.929-0.084-1.395c-0.01-0.1-0.021-0.204-0.034-0.304c-0.069-0.592-0.176-1.185-0.31-1.741
		c-0.017-0.071-0.048-0.199-0.066-0.269c-0.393-1.518-1.031-2.981-1.949-4.476c-0.014-0.023-0.029-0.047-0.043-0.07
		c-0.133-0.214-0.277-0.438-0.466-0.721c-0.01-0.015-0.031-0.045-0.051-0.075c-0.13-0.192-0.266-0.386-0.402-0.575l-0.147-0.202
		c-0.002-0.002-0.069-0.093-0.071-0.096c-0.102-0.138-0.204-0.276-0.319-0.427l-0.561-0.712c-0.199-0.247-0.409-0.501-0.621-0.753
		c-1.627-1.931-6.874-7.642-14.694-16.133c-4.232-4.596-9.5-10.315-10.251-11.21c-4.007-4.814-7.918-5.39-11.905-5.588l-0.757-0.039
		c-0.272-0.017-0.675-0.04-5.21-0.157c-0.828-2.472-1.988-4.679-3.421-6.432c-1.428-1.746-3.982-4.869-8.249-6.432
		c-0.939-3.495-2.703-6.599-5.008-8.734c-1.665-1.532-9.522-7.254-17.548-7.254c-1.652,0-3.228,0.242-4.696,0.716
		c-4.142-3.791-7.778-4.216-11.729-4.348l-0.402-0.015c-1.349-0.049-2.624-0.095-3.813-0.095c-2.246,0-4.885,0.143-7.434,1.207
		c-1.627,0.678-3.478,1.803-5.162,3.348c-1.737-0.575-3.682-0.909-5.858-0.909l-0.107,0c-0.056,0-0.131,0.001-0.202,0.002
		c-0.33,0.004-0.657,0.017-0.98,0.037c-0.048,0.003-0.098,0.005-0.148,0.009c-0.34,0.023-0.674,0.054-0.965,0.088L86.728,9.9
		c-0.254,0.032-0.505,0.066-0.761,0.106c-0.055,0.008-0.109,0.017-0.164,0.025c-0.249,0.041-0.492,0.085-0.797,0.143l-0.19,0.038
		c-0.234,0.047-0.465,0.095-0.727,0.154c-5.551,1.267-15.224,4.647-17.635,13.062c-0.01,0.032-0.019,0.063-0.027,0.095
		c-0.174,0.634-0.315,1.278-0.424,1.94c-0.033,0.013-0.065,0.026-0.096,0.039c-0.289,0.117-0.566,0.242-0.899,0.401
		c-0.263,0.118-0.522,0.244-0.764,0.372c-0.581,0.311-1.138,0.652-1.642,1.007c-2.683,1.885-4.701,4.402-6.009,7.51
		c-0.18,0.43-0.342,0.869-0.5,1.35c-1.574-0.044-2.255-0.067-2.536-0.079c-0.616-0.056-1.193-0.083-1.759-0.083
		c-4.05,0-7.724,1.477-10.913,4.383l-0.32,0.293c-3.118,2.863-30.517,28.055-32.287,30.707c-2.364,3.554-2.638,7.24-2.638,9.705
		v18.26c0,4.332,1.989,8.038,5.18,10.363v106.344c0,5.882,4.569,11.965,12.216,11.965h168.52
		C192.923,228.001,197.087,228.001,200.336,224.732z"/>
	<g>
		<g>
			<path style="fill:#ED1C24;" d="M20.32,93.655v122.381c0,0,0,2.465,2.716,2.465c2.712,0,165.807,0,168.52,0
				c2.715,0,2.472-0.744,2.472-3.952c0-3.204,0-120.65,0-120.65L20.32,93.655z"/>
			<path style="opacity:0.4;fill:#510000;" d="M194.027,108.062c0-8.66,0-14.163,0-14.163L20.32,93.655v14.407H194.027z"/>
			<path style="opacity:0.4;fill:#8B1A1A;" d="M194.027,214.55v-69.671c-4.523,21.017-14.706,40.986-31.749,53.754
				c-19.094,14.301-44.286,16.35-67.322,16.861c-21.136,0.462-44.582,2.858-65.552,0.988c-4.059-0.361-6.911-2.051-9.085-4.633
				v4.186c0,0,0,2.465,2.716,2.465h168.52C194.27,218.501,194.027,217.757,194.027,214.55z"/>
			<path style="fill:#AB1F1F;" d="M15.14,81.069c0,2.47,0,16.284,0,18.26c0,1.977,1.478,3.454,3.948,3.454
				c2.47,0,175.426,1.476,177.16,1.476c1.721,0,4.93,0,4.93-2.954c0-2.965,0-14.314,0-16.533c0-2.221,0.063-3.337-2.901-6.849
				c-2.961-3.516-23.129-25.166-24.98-27.385c-1.849-2.222-2.773-2.042-5.92-2.222c-3.144-0.185-112.7-2.592-114.549-2.778
				c-1.848-0.187-3.517,0-5.55,1.854c-2.035,1.849-30.351,28.126-31.09,29.235C15.447,77.738,15.14,79.033,15.14,81.069z"/>
			<path style="fill:#ED1C24;" d="M16.001,78.29c1.114,0.372,178.026,3.518,181.536,3.518c1.654,0,2.72,0.037,3.173-0.297
				c-0.395-0.924-1.109-2.019-2.434-3.586c-2.961-3.516-23.129-25.166-24.98-27.385c-1.849-2.222-2.773-2.042-5.92-2.222
				c-3.144-0.185-112.7-2.592-114.549-2.778c-1.848-0.187-3.517,0-5.55,1.854c-2.035,1.849-30.32,28.104-31.085,29.23
				C15.82,77.509,15.671,78.185,16.001,78.29z"/>
			<path style="opacity:0.6;fill:#F8B693;" d="M47.833,48.131c0,0-26.275,23.688-29.054,26.276
				c-2.777,2.586-2.958,4.076-0.366,3.703c2.588-0.373,179.124,3.697,179.124,3.697s-160.068-7.034-167.47-7.034
				c-7.405,0-6.107-1.477-1.666-6.29C32.842,63.675,47.833,48.131,47.833,48.131z"/>
			<path style="fill:#C31F24;" d="M200.71,81.51c-0.453,0.335-1.518,0.297-3.173,0.297c-3.51,0-180.421-3.146-181.536-3.518
				c-0.33-0.105-0.181-0.781,0.19-1.668l-0.005,0.005c-0.739,1.11-1.047,2.406-1.047,4.441c0,2.47,0,16.284,0,18.26
				c0,1.977,1.478,3.454,3.948,3.454c2.47,0,175.426,1.476,177.16,1.476c1.721,0,4.93,0,4.93-2.954c0-2.965,0-14.314,0-16.533
				C201.177,83.539,201.199,82.652,200.71,81.51z"/>
		</g>
		<path style="opacity:0.4;fill:#AB449B;" d="M190.965,120.027c-2.954-1.572-5.18-3.89-5.18-3.89
			c0.559-0.744,1.483-1.572,3.18-2.868c3.553-2.71,4.188-3.698,3.945-10.487c-0.246-6.784-3.945-7.896-11.964-13.446
			c-8.023-5.553-14.799-11.721-18.259-16.412c-1.376-1.871-3.129-3.363-4.737-4.482c0.46-0.14,0.917-0.289,1.37-0.453
			c0.284-0.106,0.173-0.5-0.106-0.5c-0.761-0.004-1.536,0.091-2.323,0.249c-0.628-0.398-1.201-0.728-1.7-0.997
			c-2.751-2.194-6.567-3.401-9.467-3.496c-2.285-0.079-4.429,0.17-6.303,0.532c-3.153,0.307-6.278,1.009-9.446,1.541
			c-7.563,1.253-15.214,1.37-22.725-0.266c-0.128-0.022-0.161,0.17-0.031,0.201c6.045,1.796,12.431,2.105,18.688,1.574
			c0.638-0.054,1.276-0.128,1.902-0.204c2.029-0.073,4.001-0.467,5.982-0.938c2.922-0.484,5.857-0.919,8.842-0.857
			c4.124,0.084,8.179,1.249,11.432,3.73c-1.22,0.446-2.402,0.972-3.485,1.471c-0.08,0.036-0.041,0.137,0.043,0.122
			c1.379-0.329,2.814-0.618,4.249-0.935c0.272,0.239,0.544,0.483,0.799,0.743c0.773,0.771,1.427,1.615,1.996,2.509
			c0.211,1.636-0.529,3.239-2.752,4.525c-7.65,4.441-21.217,0.127-31.335,11.105c0,0-4.812,7.282-1.358,10.613
			c3.452,3.331,6.726,4.313,7.778,5.488c0,0-6.726,2.713-10.063,5.552c-3.327,2.837-3.204,5.481-3.204,9.068
			c0,1.047,0.248,2.407,1.605,3.517c1.353,1.11,4.689,3.64,9.805,4.996c0,0-9.003,4.361-11.287,8.079
			c-1.17,1.913,0.009,6.217,0.616,8.763c0.371,1.544,3.028,4.625,9.319,7.154c0,0-6.482,3.889-7.713,5.675
			c-1.235,1.789,0.434,4.568,0.802,5.301c0.365,0.745,6.102,4.751,6.102,4.751s-5.366,3.145-4.622,12.835
			c0,0,0.581-2.379,3.146-4.628c0.494-0.43,1.476,0.801,2.285,2.835c0,0,0.754-6.619,3.632-8.824
			c1.052-0.795,3.274-2.029,3.031-3.209c-0.253-1.169-1.671-1.54-4.634-2.644c-2.956-1.117-3.82-1.489-6.105-2.838
			c0,0,0.744-1.359,4.384-3.149c3.632-1.791,8.202-3.087,8.818-4.256c0.616-1.169,0.436-0.925,0.062-2.221
			c-0.371-1.295-0.124-2.9-0.741-3.388c-0.618-0.501-4.07-0.681-7.588-2.222c-3.514-1.54-6.783-3.336-8.324-4.999
			c0,0,1.295-3.023,5.977-5.366c4.697-2.342,10.12-4.192,11.102-6.412c0.99-2.222,1.298-5.924,0.193-6.664
			c-1.117-0.743-12.954-3.394-16.098-6.236c0,0,1.721-2.837,7.215-5.179c5.486-2.344,8.081-3.083,9.064-4.564
			c0.987-1.478,1.796-6.785,0.371-7.34c-1.418-0.555-8.017-2.286-11.899-5.677c0,0,3.94-4.131,13.504-6.66
			c9.02-2.38,18.906-6.248,19.901-11.964c1.333,2.87,1.885,6.111,1.977,9.308c-0.51,0.116-1.052,0.468-1.649,1.18
			c-2.836,3.378-11.962,16.282-13.079,18.132c-1.105,1.852-1.348,2.958-1.348,6.784c0,3.746,1.177,35.265,1.343,38.214
			c0,0.004,0.005,0.009,0.005,0.015c0,0.053,0,0.105,0,0.138c0.043,0.52,0.057,0.978,0.127,1.356v0.003c0,0,0,0,0,0.006
			c0.01,0.036,0.022,0.08,0.026,0.117c0.166,0.908,1.343,1.764,1.786,2.142c0.681,0.572,0.908,0.572,2.013,0.572
			c2.465,0,23.316-0.743,25.904-0.859c2.593-0.129,2.347-1.116,2.219-4.074c-0.12-2.961,0.501-34.294,0.246-37.63
			c-0.246-3.325,0.281-3.856-2.805-8.542c-3.082-4.687-8.267-12.443-9.251-13.926c-0.715-1.068-2.48-3.606-4.381-3.767
			c-0.06-4.047-0.893-7.99-3.035-11.518c-0.104-0.232-0.217-0.472-0.333-0.702c-0.183-0.584-0.421-1.131-0.724-1.646
			c1.936,2.157,3.741,4.648,4.497,5.93c3.611,6.108,10.64,11.847,18.316,17.391c7.682,5.56,9.075,14.07,9.075,14.07
			c-0.558,1.573-4.911,4.717-7.13,6.015c-2.222,1.295-2.961,2.495-2.222,6.013c0.744,3.517,1.391,2.593,3.793,3.517
			c3.905,1.498,6.483,4.255,6.483,4.255c-0.012,0-0.017,0.006-0.024,0.006c-0.409,0.137-0.806,0.282-1.186,0.462
			c-0.544,0.26-1.06,0.563-1.565,0.896c-2.034,1.153-4.13,2.604-4.812,3.353c-1.021,1.11-0.467,3.512,0.181,5.827
			c0.648,2.317,5.643,4.262,5.643,4.262s-2.588,2.305-5.084,4.524c-2.503,2.227-1.856,2.413-1.856,4.167
			c0,1.763-0.275,2.411,0.469,2.963c1.731,1.298,6.384,4.442,6.384,4.442c-1.577,1.758-7.034,4.622-8.702,5.919
			c-1.668,1.295-0.462,2.315,0.462,4.625c0.929,2.312,3.885,3.705,6.016,5c2.13,1.297,1.854,1.664-1.016,3.146
			c-2.869,1.476-3.42,3.144-3.42,3.144c1.572-1.201,5.917-1.296,5.917-1.296c0.65,1.573,0.927,3.98,0.927,3.98
			c1.018-3.794,4.441-5.277,4.622-7.402c0.191-2.125-2.125-3.889-4.899-5.642c-2.78-1.763-2.592-3.061-2.592-3.061
			c1.476-1.2,5.274-3.048,6.938-4.069c1.668-1.02,1.018-1.476,1.117-4.531c0.083-3.054-1.023-3.428-2.869-3.884
			c-3.412-0.855-5.282-3.702-5.282-3.702c3.984-3.236,7.407-4.904,8.702-5.552c1.295-0.648,0.277-3.145,0.186-4.993
			c-0.089-1.855-1.3-1.487-3.517-1.946c-2.219-0.467-4.629-2.411-4.629-2.411c3.243-3.146,8.334-3.698,8.789-5.45
			c0.431-1.638-0.005-2.87,0.299-4.442c0.01-0.012,0.019-0.021,0.031-0.038c0.032-0.047,0.02-0.1,0.005-0.142
			c0.014-0.064,0.021-0.129,0.038-0.193C196.247,122.98,193.929,121.6,190.965,120.027z M149.676,64.823
			c-1.035-0.357-2.104-0.643-3.178-0.839C147.531,64.115,148.607,64.408,149.676,64.823z M161.746,88.798
			c0,0.692-0.291,1.281-0.696,1.509c-0.402-0.228-0.695-0.816-0.695-1.509c0-0.447,0.115-0.849,0.308-1.143
			c0.206,0.262,0.611,0.314,0.823,0.092C161.647,88.034,161.746,88.395,161.746,88.798z"/>
		<path style="opacity:0.7;fill:#5F00A9;" d="M155.894,55.198c-2.934-0.805-6.649-0.453-9.68-0.39
			c-4.304,0.091-8.62,0.235-12.922,0.34c-4.877,0.118-9.86,0.182-14.781,0.617c-2.777-2.827-8.58-2.476-12.304-2.115
			c-3.606,0.35-7.192,1.042-10.7,1.944c-4.174-0.595-8.373-1.053-12.617-1.254c-3.218-0.159-6.475-0.137-9.674,0.256
			c-1.146,0.149-3.676,0.51-3.544,1.965c0.102,1.094,1.365,1.807,2.603,2.253c-2.353-0.85-9.514-0.935-11.553,1.1
			c-3.401,3.399,8.021,6.211,10.932,6.146c0.105-0.004,0.202-0.009,0.308-0.009c-1.789,4.552,8.183,4.313,11.454,4.079
			c4.23-0.297,8.416-1.138,12.511-2.093c3.938-0.914,7.965-1.997,11.875-3.303c5.791,4.121,14.205,5.427,21.304,6.188
			c5.344,0.573,10.397,0.696,15.724-0.018c3.332-0.445,8.076-0.753,10.662-2.884c4.268-3.501-4.114-5.621-6.683-6.136
			c-0.265-0.054-0.537-0.095-0.797-0.144c1.091-0.255,2.186-0.521,3.257-0.813c2.015-0.552,5.238-1.286,6.365-3.069
			C158.484,56.51,157.317,55.584,155.894,55.198z"/>
		<g>
			<path style="fill:#B54600;" d="M180.453,107.468c-0.25-3.326,0.274-3.851-2.807-8.543c-3.086-4.685-8.264-12.441-9.253-13.924
				c-0.985-1.483-3.979-5.764-6.572-2.683c-2.838,3.385-11.102,17.999-12.207,19.848c-1.117,1.848-1.36,2.959-1.36,6.783
				c0,3.827-0.123,36.513,0,38.246c0.063,0.95,1.348,1.869,1.81,2.262c0.682,0.575,0.91,0.575,2.013,0.575
				c2.465,0,23.319-0.744,25.904-0.862c2.593-0.126,2.35-1.115,2.222-4.074C180.087,142.138,180.696,110.803,180.453,107.468z
				 M163.638,88.193c-0.585,0-1.064-0.721-1.064-1.614c0-0.899,0.479-1.626,1.064-1.626c0.595,0,1.074,0.727,1.074,1.626
				C164.712,87.472,164.233,88.193,163.638,88.193z"/>
		</g>
		<g>
			<path style="fill:#FFB546;" d="M178.97,105.99c-0.243-3.33-0.243-3.207-3.332-7.893c-3.081-4.691-8.139-12.22-9.126-13.696
				c-0.989-1.479-2.715-4.931-5.309-1.849c-2.838,3.38-11.964,16.284-13.073,18.137c-1.11,1.849-1.355,2.954-1.355,6.779
				c0,3.825,1.235,36.646,1.355,38.367c0.123,1.733,0,2.715,2.47,2.715c2.465,0,23.312-0.739,25.905-0.861
				c2.592-0.121,2.342-1.11,2.222-4.074C178.599,140.655,179.216,109.321,178.97,105.99z M162.904,88.193
				c-0.594,0-1.069-0.721-1.069-1.614c0-0.899,0.475-1.626,1.069-1.626c0.585,0,1.062,0.727,1.062,1.626
				C163.966,87.472,163.489,88.193,162.904,88.193z"/>
		</g>
		<path style="fill:#FF9000;" d="M148.689,144.91c0,0-1.18-32.013-1.425-35.589c-0.243-3.575,0.245-6.662,2.465-9.993
			c2.222-3.336,11.105-15.671,11.105-15.671s-9.372,14.561-10.238,16.904c-0.867,2.343-2.099,3.946-2.219,9.254
			C148.253,115.118,148.689,144.91,148.689,144.91z"/>
		<g style="opacity:0.2;">
			<path style="fill:#B54600;" d="M179.028,111.368c-0.063,0.34-0.12,0.669-0.186,0.993c-1.699,9.122-8.319,19.784-12.219,24.247
				c-3.309,3.799-9.337,9.918-14.876,9.754c-1.688-0.054-2.853-0.633-3.669-1.546c0.026,0.527,0.041,0.882,0.053,1.02
				c0.123,1.733,0,2.715,2.47,2.715c2.465,0,23.312-0.739,25.905-0.861c2.592-0.121,2.342-1.11,2.222-4.074
				C178.631,141.287,178.992,121.361,179.028,111.368z"/>
		</g>
		<path style="fill:none;" d="M144.703,59.792c-4.068-2.805-13.444-2.338-25.158-0.559c-9.165,1.388-12.496,3.702-12.496,3.702
			l4.627,1.941c4.335,1.907,26.78,7.825,31.641,2.959C145.82,65.338,148.783,62.587,144.703,59.792z"/>
		<g>
			<path style="fill:#821800;" d="M129.749,64.414c6.047-0.122,11.47-3.209,18.382-2.714c6.911,0.493,16.656,8.632,9.006,13.073
				c-7.653,4.442-21.22,0.126-31.336,11.104c0,0-4.813,7.283-1.36,10.613c3.455,3.332,6.726,4.315,7.773,5.489
				c0,0-6.719,2.715-10.052,5.554c-3.33,2.835-3.202,5.481-3.202,9.067c0,1.047,0.244,2.407,1.599,3.517
				c1.353,1.111,4.685,3.639,9.805,5c0,0-9.003,4.356-11.285,8.075c-1.17,1.913,0.009,6.216,0.614,8.76
				c0.373,1.547,3.023,4.627,9.321,7.155c0,0-6.482,3.891-7.715,5.674c-1.232,1.791,0.436,4.564,0.802,5.303
				c0.365,0.743,6.104,4.749,6.104,4.749s-5.366,3.15-4.624,12.835c0,0,0.58-2.379,3.146-4.628c0.493-0.429,1.483,0.803,2.287,2.839
				c0,0,0.753-6.619,3.633-8.824c1.052-0.798,3.271-2.03,3.028-3.21c-0.25-1.169-1.67-1.541-4.634-2.646
				c-2.954-1.115-3.82-1.482-6.102-2.836c0,0,0.741-1.36,4.381-3.146c3.635-1.796,8.201-3.091,8.82-4.261
				c0.616-1.169,0.436-0.923,0.063-2.221c-0.371-1.296-0.126-2.9-0.744-3.39c-0.616-0.499-4.068-0.68-7.585-2.219
				c-3.517-1.54-6.787-3.337-8.327-5c0,0,1.293-3.022,5.978-5.364c4.691-2.345,10.12-4.192,11.102-6.415
				c0.99-2.22,1.297-5.928,0.192-6.662c-1.114-0.744-12.953-3.396-16.102-6.237c0,0,1.726-2.837,7.219-5.173
				c5.489-2.349,8.081-3.087,9.063-4.569c0.987-1.478,1.789-6.784,0.373-7.342c-1.418-0.552-8.023-2.28-11.901-5.674
				c0,0,3.941-4.135,13.505-6.662c9.564-2.529,20.108-6.725,19.985-13.016c-0.125-6.29-7.958-9.816-13.014-9.988
				c-5.431-0.186-10.115,1.494-12.029,2.03C133.511,63.735,129.749,64.414,129.749,64.414z"/>
			<path style="fill:#C1241D;" d="M139.046,96.259c-0.005-0.007-0.01-0.011-0.01-0.011c-1.931-0.671-7.935-2.38-11.567-5.557
				c0,0,0.034-0.037,0.085-0.091c-0.441-0.366-0.819-0.8-1.049-1.354c-0.532-1.221-0.655-2.443-0.436-3.638
				c-0.087,0.089-0.181,0.18-0.267,0.27c0,0-4.813,7.283-1.36,10.613c3.455,3.332,6.726,4.315,7.773,5.489
				c0,0-0.484,0.198-1.249,0.531c0.905-0.344,1.791-0.743,2.672-1.143c0.39-0.212,0.782-0.425,1.153-0.657
				C135.396,100.333,140.42,97.086,139.046,96.259z"/>
			<path style="fill:#C1241D;" d="M131.061,166.316c0.585,0.224,1.169,0.419,1.764,0.61c1.093-0.796,3.079-1.964,2.848-3.081
				c-0.25-1.169-1.67-1.541-4.634-2.646c-2.954-1.115-3.82-1.482-6.102-2.836l0.004-0.006c-1.037-0.432-1.93-1.09-2.688-2.004
				c-0.489-0.583-0.713-1.211-0.734-1.848c-0.084,0.096-0.159,0.19-0.222,0.276c-1.232,1.791,0.436,4.564,0.802,5.303
				c0.334,0.668,5.045,4.004,5.946,4.637C129.015,165.316,129.966,165.902,131.061,166.316z"/>
			<path style="fill:#C1241D;" d="M128.979,149.182c2.843,0.988,5.929,1.479,8.883,1.536c0.137,0.005,0.248,0.037,0.351,0.095
				c0.515-0.994,0.337-0.845-0.012-2.077c-0.371-1.296-0.126-2.9-0.744-3.39c-0.616-0.499-4.068-0.68-7.585-2.219
				c-2.966-1.304-5.737-2.773-7.46-4.204c-0.867-0.567-1.637-1.248-2.232-2.077c-1.051-1.488-1.194-2.677-0.934-3.903
				c-0.053,0.079-0.118,0.164-0.169,0.249c-1.17,1.913,0.009,6.216,0.614,8.76c0.756,3.15,4.345,5.041,6.998,6.295
				C127.428,148.598,128.191,148.911,128.979,149.182z"/>
			<path style="fill:#C1241D;" d="M138.817,119.686c-1.062-0.71-11.867-3.154-15.599-5.832c-1.731-0.637-3.42-1.684-3.264-3.294
				c-0.017-0.095-0.044-0.192-0.051-0.292c-0.996,1.918-0.944,3.909-0.944,6.332c0,1.047,0.244,2.407,1.599,3.517
				c4.771,3.904,10.671,6.085,16.836,6.173c0.498,0.005,0.744,0.398,0.744,0.787c0.212-0.239,0.383-0.484,0.486-0.729
				C139.614,124.128,139.922,120.42,138.817,119.686z"/>
			<path style="fill:#821800;" d="M155.658,63.675c0,0,5.796,2.345,9.251,7.029c3.457,4.691,10.237,10.859,18.259,16.406
				c8.021,5.557,11.719,6.668,11.962,13.452c0.245,6.788-0.393,7.778-3.941,10.487c-1.702,1.295-2.624,2.125-3.178,2.868
				c0,0,2.215,2.315,5.176,3.889c2.963,1.573,5.274,2.954,4.812,4.718c-0.462,1.754,0.097,3.051-0.373,4.809
				c-0.455,1.757-5.544,2.31-8.784,5.461c0,0,2.405,1.938,4.622,2.405c2.224,0.463,3.425,0.089,3.514,1.944
				c0.097,1.849,1.118,4.346-0.18,4.995c-1.295,0.648-4.716,2.311-8.702,5.55c0,0,1.87,2.854,5.281,3.705
				c1.849,0.456,2.954,0.828,2.87,3.883c-0.096,3.054,0.551,3.517-1.117,4.532c-1.666,1.02-5.455,2.868-6.938,4.069
				c0,0-0.181,1.296,2.593,3.061c2.773,1.753,5.088,3.512,4.903,5.642c-0.186,2.125-3.606,3.606-4.629,7.4
				c0,0-0.274-2.406-0.922-3.98c0,0-4.353,0.097-5.925,1.297c0,0,0.559-1.667,3.428-3.145c2.869-1.477,3.144-1.849,1.018-3.145
				c-2.135-1.297-5.088-2.688-6.018-4.999c-0.924-2.312-2.13-3.332-0.462-4.629c1.668-1.295,7.125-4.164,8.697-5.917
				c0,0-4.651-3.146-6.381-4.441c-0.744-0.552-0.468-1.203-0.468-2.965c0-1.753-0.647-1.946,1.849-4.165
				c2.504-2.216,5.089-4.526,5.089-4.526s-4.992-1.946-5.64-4.26c-0.65-2.311-1.201-4.718-0.183-5.828
				c1.016-1.111,5.175-3.794,7.587-4.718c0,0-2.581-2.757-6.48-4.255c-2.403-0.924-3.05,0-3.794-3.519
				c-0.739-3.515,0-4.716,2.219-6.013c2.222-1.297,6.572-4.441,7.124-6.015c0,0-1.384-8.509-9.066-14.066
				c-7.679-5.546-14.71-11.283-18.319-17.394C163.075,71.034,158.463,64.967,155.658,63.675z"/>
			<path style="fill:#C1241D;" d="M196.247,155.276c0.063-2.264-0.532-3.055-1.594-3.501c-0.009,0.085-0.021,0.16-0.053,0.243
				c-0.27,0.756-0.884,1.35-1.474,1.877c-0.52,0.463-1.066,0.882-1.62,1.303c-0.616,0.466-1.201,0.999-1.87,1.349
				c-2.239,1.689-6.11,3.782-7.458,4.834c-1.669,1.296-0.462,2.317,0.462,4.629c0.229,0.569,0.578,1.078,1.004,1.545
				c0.01-0.053,0.031-0.11,0.053-0.165c0.031-0.96,0.797-1.578,1.795-2.161c1.02-0.595,2.056-1.144,3.115-1.658
				c1.678-1.191,4.992-2.826,6.521-3.761C196.798,158.792,196.151,158.33,196.247,155.276z"/>
			<path style="fill:#C1241D;" d="M195.13,100.562c-0.063-1.797-0.383-3.188-0.946-4.378c0.511,1.412,0.638,2.912,0.064,4.387
				c-0.589,1.531-2.45,4.186-2.45,4.186c-0.552,1.573-4.901,4.717-7.124,6.015c-2.219,1.297-2.958,2.498-2.219,6.013
				c0.732,3.486,1.382,2.604,3.733,3.497c-0.387-0.563-0.652-1.2-0.662-1.956c0-0.551,2.287-4.61,2.501-4.387
				c-0.01-0.011-0.017-0.021-0.017-0.021c0.554-0.743,1.476-1.573,3.178-2.868C194.738,108.34,195.376,107.35,195.13,100.562z"/>
			<path style="fill:#C1241D;" d="M197.831,121.206c-0.033,0.084-0.057,0.169-0.098,0.255c-0.477,1.04-1.401,1.509-2.432,1.902
				c-1.329,0.499-2.527,1.286-3.852,1.807c-0.063,0.027-0.123,0.043-0.185,0.053c-2.359,1.19-5.291,3.144-6.122,4.054
				c-1.019,1.11-0.467,3.518,0.183,5.828c0.13,0.473,0.445,0.934,0.859,1.36c-0.373-0.904-0.32-1.85,0.679-2.669
				c0.777-0.637,1.646-1.105,2.552-1.518c3.23-2.7,7.775-3.284,8.211-4.945c0.47-1.758-0.089-3.055,0.373-4.809
				C198.118,122.063,198.047,121.631,197.831,121.206z"/>
			<path style="fill:#C1241D;" d="M195.886,135.608c-1.167,0.293-1.998,1.063-2.913,1.944c-0.965,0.939-1.871,1.939-2.99,2.689
				c-0.982,0.876-2.556,2.278-4.106,3.649c-2.497,2.22-1.849,2.412-1.849,4.165c0,1.762-0.276,2.413,0.468,2.965
				c0.25,0.191,0.572,0.424,0.934,0.679c-0.05-0.052-0.094-0.112-0.142-0.164c-0.166-0.103-0.298-0.249-0.33-0.437
				c-0.273-1.572,1.579-2.635,2.725-3.303c0.303-0.177,0.616-0.346,0.927-0.51c3.76-2.969,6.948-4.533,8.189-5.148
				c1.298-0.649,0.277-3.145,0.18-4.995C196.93,136.144,196.565,135.794,195.886,135.608z"/>
		</g>
		<path style="fill:#FF9100;" d="M160.343,68.738c-2.699-3.91-7.07-6.141-11.654-6.979c-5.611-1.036-10.991,0.424-16.497,1.337
			c-7.559,1.254-15.211,1.371-22.722-0.264c-0.128-0.022-0.159,0.169-0.032,0.202c6.045,1.795,12.432,2.104,18.695,1.572
			c5.604-0.474,11.066-2.114,16.718-1.997c4.829,0.1,9.583,1.672,13.038,5.13c4.473,4.475,5.301,11.294,4.877,17.31
			c-0.055,0.689,1.011,0.892,1.074,0.19C164.404,79.428,163.735,73.648,160.343,68.738z"/>
		<g>
			<path style="fill:#B54600;" d="M144.98,59.877c-1.009-0.691-2.342-1.18-3.962-1.503c-3.921,3.225-14.174,3.916-20.185,3.916
				c-4.254,0-8.303-0.447-10.852-0.711c-1.95,0.743-3.06,1.357-3.06,1.357l5.036,2.031c4.328,1.907,26.773,7.829,31.641,2.964
				C146.097,65.434,149.06,62.683,144.98,59.877z"/>
			<path style="opacity:0.4;fill:#B54600;" d="M144.108,67.421c2.354-2.359,4.675-4.93,0.871-7.543
				c-1.009-0.691-2.342-1.18-3.962-1.503c-0.787,0.647-1.851,1.194-3.072,1.652C141.21,61.227,143.938,63.767,144.108,67.421z"/>
			<path style="opacity:0.4;fill:#B54600;" d="M118.577,66.747c-1.35-1.94-1.201-3.416-0.276-4.51
				c-3.289-0.129-6.285-0.447-8.319-0.659c-1.95,0.743-3.06,1.357-3.06,1.357l5.036,2.031c1.189,0.532,3.755,1.356,6.95,2.178
				C118.794,67.011,118.671,66.89,118.577,66.747z"/>
			<g>
				<path style="fill:#B54600;" d="M97.92,52.572c-2.22-4.075-13.695-23.073-15.426-24.678c-1.724-1.6-6.042-3.208-7.029-0.615
					c-0.07,0.18-0.13,0.361-0.188,0.536c-0.178,2.671,0.99,4.956,2.412,6.99c1.721,2.471,7.646,8.391,10.975,12.955
					c2.626,3.596,12.287,11.085,16.271,14.114C102.754,59.292,99.367,55.229,97.92,52.572z"/>
				<path style="opacity:0.4;fill:#B54600;" d="M77.632,30.146c1.959-0.822,4.001-1.045,5.987-0.817
					c-0.51-0.723-0.898-1.222-1.124-1.434c-1.724-1.6-6.042-3.208-7.029-0.615c-0.07,0.18-0.13,0.361-0.188,0.536
					c-0.084,1.233,0.128,2.379,0.51,3.459C76.32,30.838,76.927,30.45,77.632,30.146z"/>
				<path style="fill:#FF9500;" d="M82.495,27.895c1.73,1.604,13.206,20.603,15.426,24.678c1.447,2.657,4.833,6.72,7.015,9.302
					c1.071,0.812,1.74,1.307,1.74,1.307s-1.115-15.203-7.399-34.787c-3.202-9.999-9.249-9.625-13.074-8.766
					c-3.825,0.873-9.627,2.966-10.616,6.418c-0.168,0.611-0.265,1.201-0.308,1.77c0.058-0.175,0.118-0.356,0.188-0.536
					C76.452,24.687,80.771,26.295,82.495,27.895z"/>
				<path style="fill:#FF9000;" d="M81.844,25.143c0.457-2.444,3.082-3.368,5.277-3.873c4.223-0.972,7.053-0.07,9.574,1.785
					c-3.269-4.457-7.547-4.092-10.493-3.428c-3.825,0.873-9.627,2.966-10.616,6.418c-0.168,0.611-0.265,1.201-0.308,1.77
					c0.058-0.175,0.118-0.356,0.188-0.536c0.939-2.46,4.882-1.132,6.75,0.381C81.871,26.822,81.697,25.972,81.844,25.143z"/>
			</g>
			<path style="fill:#FF9500;" d="M133.574,29.75c4.441-4.935,5.303-3.21,6.167-2.838c0.573,0.245,1.678,1.037,2.402,2.577
				c-0.453-2.731-1.68-4.633-2.53-5.42c-1.604-1.476-10.482-7.028-14.312-3.697c-3.613,3.156-2.711,4.442-7.152,16.905
				c-4.054,11.37-9.848,22.835-10.833,24.757c1.548-1.232,3.724-2.646,6.244-4.175c2.119-1.721,4.658-3.996,7.669-7.014
				C125.801,46.276,129.132,34.686,133.574,29.75z"/>
			<path style="opacity:0.5;fill:#FFC500;" d="M139.614,24.069c-1.604-1.476-10.482-7.028-14.312-3.697
				c-0.214,0.192-0.414,0.373-0.602,0.553c3.13-0.998,6.615,0.005,9.663,1.891c1.372,0.841,2.133,1.913,1.254,3.433
				c-0.859,1.488-2.087,2.338-2.686,4.087c-0.034,0.101-0.053,0.207-0.092,0.301c0.238-0.308,0.484-0.616,0.734-0.886
				c4.441-4.935,5.303-3.21,6.167-2.838c0.573,0.245,1.678,1.037,2.402,2.577C141.691,26.758,140.464,24.857,139.614,24.069z"/>
			<path style="fill:#B54600;" d="M139.742,26.912c-0.864-0.372-1.726-2.098-6.167,2.838c-4.442,4.936-7.773,16.526-12.342,21.095
				c-3.011,3.018-5.551,5.292-7.669,7.014c9.73-5.909,24.501-13.548,27.165-19.349c1.623-3.538,1.818-6.604,1.416-9.021
				C141.419,27.949,140.314,27.157,139.742,26.912z"/>
			<path style="opacity:0.4;fill:#B54600;" d="M141.391,32.062c0.308,0.318,0.587,0.658,0.855,1.009
				c0.127-1.309,0.079-2.508-0.101-3.581c-0.725-1.541-1.83-2.333-2.402-2.577c-0.864-0.372-1.726-2.098-6.167,2.838
				c-0.015,0.015-0.027,0.038-0.044,0.048C136.331,29.287,139.402,30,141.391,32.062z"/>
			<path style="fill:#FF5C00;" d="M111.117,28.883c-0.243-8.382,2.47-10.487,3.825-11.102c0.894-0.405,1.519-0.691,2.604-0.085
				c-1.786-1.691-2.636-1.902-5.813-2.008c-3.575-0.128-6.163-0.249-7.65,0.372c-1.477,0.617-3.452,2.22-4.191,4.07
				c-0.739,1.848,0,7.523,1.605,19.37c1.604,11.836,5.424,21.34,5.424,21.34c0.116-0.123,0.233-0.261,0.347-0.392
				c0.789-2.535,1.991-6.531,2.617-9.356C110.873,46.65,111.362,37.277,111.117,28.883z"/>
			<path style="opacity:0.3;fill:#B54600;" d="M111.531,23.177c-0.296,0.797-0.547,1.631-0.744,2.504
				c-0.499,2.167,0.224,7.856-1.584,9.376c-0.188,0.161-0.944,2.688-1.103,2.466c-0.501-0.682-1.168-7.076-1.377-8.453
				c-0.085-0.559-0.154-1.131-0.217-1.704c-0.101,4.53-0.448,6.762-0.318,13.116c0.007,0.567-0.13,8.176-0.5,7.772
				c-1.984-2.189-3.3-12.718-3.856-15.469c-1.572-7.726-2.191-10.808-2.085-12.157c-0.477,2.263,0.267,7.938,1.75,18.872
				c1.604,11.836,5.424,21.34,5.424,21.34c0.116-0.123,0.233-0.261,0.347-0.392c0.789-2.535,1.991-6.531,2.617-9.356
				c0.989-4.441,1.478-13.814,1.232-22.208C111.047,26.509,111.223,24.649,111.531,23.177z"/>
			<path style="opacity:0.5;fill:#FF9000;" d="M111.733,15.687c-3.575-0.128-6.163-0.249-7.65,0.372
				c-1.477,0.617-3.452,2.22-4.191,4.07c-0.229,0.573-0.318,1.53-0.281,2.927c0.712-2.174,2.178-3.867,5.132-4.479
				c2.263-0.467,5.59-0.632,6.374,2.211c0.036,0.143,0.053,0.292,0.087,0.44c0.211,0.643,0.274,1.355,0.296,2.089
				c0.766-3.847,2.46-5.09,3.442-5.536c0.894-0.405,1.519-0.691,2.604-0.085C115.76,16.005,114.911,15.793,111.733,15.687z"/>
			<path style="fill:#B54600;" d="M117.546,17.695c-1.086-0.606-1.711-0.319-2.604,0.085c-1.355,0.615-4.068,2.72-3.825,11.102
				c0.246,8.394-0.243,17.767-1.232,22.208c-0.626,2.825-1.827,6.821-2.617,9.356c4.391-5.223,9.923-20.349,10.883-25.641
				c0.989-5.422,2.47-14.06,0.127-16.41C118.014,18.136,117.773,17.907,117.546,17.695z"/>
			<path style="opacity:0.4;fill:#B54600;" d="M112.93,23.619c2.087-1.249,4.393-1.833,6.543-1.578
				c-0.126-1.615-0.482-2.922-1.194-3.646c-0.265-0.26-0.505-0.489-0.732-0.7c-1.086-0.606-1.711-0.319-2.604,0.085
				c-1.115,0.51-3.144,2.024-3.697,7.208C111.728,24.474,112.282,24.007,112.93,23.619z"/>
			<path style="fill:#B54600;" d="M87.805,35.057c-1.483-0.616-2.72-1.732-4.196,1.971c-0.606,1.524-0.837,2.938-0.902,4.074
				c0.929,3.608,4.807,8.277,7.937,10.977c3.125,2.692,14.056,10.561,16.204,10.705c-2.367-4.501-12.15-19.004-13.618-21.687
				C91.748,38.382,89.283,35.673,87.805,35.057z"/>
			<path style="opacity:0.4;fill:#B54600;" d="M85.564,38.834c1.598-0.856,3.368-1.197,5.197-1.271
				c-1.068-1.226-2.159-2.177-2.956-2.507c-1.483-0.616-2.72-1.732-4.196,1.971c-0.563,1.415-0.797,2.725-0.881,3.82
				C83.561,40.055,84.55,39.381,85.564,38.834z"/>
			<path style="fill:#FFC100;" d="M107.171,62.321c0,0-2.099-11.72-4.81-20.603c-2.72-8.883-5.058-12.463-10.729-11.476
				c-5.681,0.988-9.138,5.674-9.138,9.371c0,0.468,0.072,0.968,0.212,1.488c0.065-1.136,0.296-2.55,0.902-4.074
				c1.476-3.703,2.713-2.587,4.196-1.971c1.479,0.616,3.943,3.325,5.424,6.041c1.468,2.682,11.252,17.185,13.618,21.687
				C107.154,62.799,107.282,62.662,107.171,62.321z"/>
			<path style="fill:#FFB500;" d="M92.465,33.516c2.321-0.526,5.01-0.807,6.964,0.69c-1.88-3.336-4.155-4.602-7.797-3.963
				c-5.681,0.988-9.138,5.674-9.138,9.371c0,0.468,0.072,0.968,0.212,1.488c0.065-1.136,0.296-2.55,0.902-4.074
				c1.476-3.703,2.713-2.587,4.196-1.971c0.845,0.35,2.02,1.393,3.142,2.73C90.313,35.727,90.441,33.973,92.465,33.516z"/>
			<g>
				<path style="fill:#FFB500;" d="M82.249,38.138c-3.327-5.302-10.854-5.429-14.186-3.081c-1.269,0.892-2.133,2.04-2.704,3.394
					c1.377-1.461,3.142-1.828,4.803-0.558c1.131,0.862,2.28,1.881,3.97,3.454c1.928,1.786,4.552,4.281,8.628,8.044
					c0.542,0.504,1.115,1.03,1.709,1.577c5.414,4.966,12.337,8.14,17,9.881c3.105,1.159,5.207,1.685,5.207,1.685
					S85.585,43.439,82.249,38.138z"/>
				<path style="fill:#FFB500;" d="M71.527,37.267c-0.53-1.19,0.404-2.231,1.593-2.359c3.327-0.357,6.18,0.76,8.649,2.566
					c-3.517-4.638-10.522-4.659-13.707-2.417c-1.269,0.892-2.133,2.04-2.704,3.394c1.377-1.461,3.142-1.828,4.803-0.558
					c1.03,0.788,2.089,1.711,3.548,3.061C72.868,39.752,72.09,38.51,71.527,37.267z"/>
				<path style="fill:#B54600;" d="M84.469,50.968c-0.595-0.547-1.167-1.073-1.709-1.577c-1.827-0.484-3.618-0.946-4.952-1.259
					c-4.191-0.988-4.068-1.855-4.191-4.191c-0.047-0.851,0.185-1.765,0.516-2.594c-1.69-1.572-2.838-2.592-3.97-3.454
					c-1.661-1.27-3.425-0.903-4.803,0.558c-0.919,2.206-1.068,4.951-0.876,8.076c0.251,4.074-0.123,6.295,4.814,6.912
					c4.574,0.568,19.848,4.738,32.17,7.41C96.806,59.107,89.882,55.934,84.469,50.968z"/>
				<path style="opacity:0.4;fill:#B54600;" d="M67.372,40.055c1.861-0.168,3.741-0.078,5.6,0.218
					c-1.093-0.992-1.964-1.731-2.809-2.38c-1.661-1.27-3.425-0.903-4.803,0.558c-0.334,0.792-0.558,1.651-0.708,2.576
					C65.378,40.507,66.291,40.157,67.372,40.055z"/>
				<path style="opacity:0.4;fill:#B54600;" d="M84.469,50.968c-0.595-0.547-1.167-1.073-1.709-1.577
					c-1.827-0.484-3.618-0.946-4.952-1.259c-1.801-0.425-2.805-0.83-3.373-1.334c-1.58,2.019-3.779,3.517-6.36,3.985
					c-1.51,0.281-2.54,0-3.295-0.616c0.361,1.794,1.331,2.869,4.518,3.272c4.574,0.568,19.848,4.738,32.17,7.41
					C96.806,59.107,89.882,55.934,84.469,50.968z"/>
			</g>
			<g>
				<path style="fill:#B54600;" d="M104.253,61.578c-0.181,0-0.291,0-0.291,0s-11.225,1.603-21.097,1.848
					c-4.199,0.106-6.832-0.573-8.479-1.381c0.349,0.292,0.749,0.553,1.199,0.765c1.319,0.627,7.258,1.36,13.399,1.721
					c5.712-0.249,11.923-0.832,17.691-1.997C106.675,62.534,105.772,62.162,104.253,61.578z"/>
				<path style="fill:#FFC100;" d="M75.585,62.81c-0.45-0.212-0.85-0.473-1.199-0.765c-2.456-2.082-2.39-5.875-0.771-7.502
					c0.532-0.53,1.736-0.776,3.183-0.854c-0.821-0.08-1.601-0.134-2.318-0.134c-2.219,0-7.159-3.575-10.24,1.483
					c-3.081,5.063,0.616,8.388,4.812,9.004c2.603,0.382,10.604,0.887,19.932,0.488C82.844,64.17,76.905,63.437,75.585,62.81z"/>
				<path style="opacity:0.4;fill:#B54600;" d="M75.585,62.81c-0.45-0.212-0.85-0.473-1.199-0.765
					c-0.589-0.504-1.032-1.105-1.346-1.752c-2.518,0.721-5.763,0.646-7.93-0.831c-0.994-0.673-1.552-1.497-1.781-2.38
					c-1.097,3.9,2.121,6.434,5.722,6.959c2.603,0.382,10.604,0.887,19.932,0.488C82.844,64.17,76.905,63.437,75.585,62.81z"/>
			</g>
			<g>
				<path style="fill:#B54600;" d="M106.497,62.873l-1.733-0.307c0,0-13.813,1.726-18.936-0.129c0,0,0.065,4.384,4.441,4.69
					C94.646,67.438,102.053,65.338,106.497,62.873z"/>
				<path style="opacity:0.4;fill:#B54600;" d="M106.497,62.873l-1.733-0.307c0,0-13.813,1.726-18.936-0.129
					c0,0,0.065,4.384,4.441,4.69C94.646,67.438,102.053,65.338,106.497,62.873z"/>
				<path style="fill:#B54600;" d="M106.497,62.873l-1.733-0.307c0,0-15.912-7.157-18.871-6.791c0,0,0.488-5.609,4.867-5.302
					C95.142,50.782,104.391,58.863,106.497,62.873z"/>
				<path style="opacity:0.4;fill:#B54600;" d="M94.148,52.26c0.361-0.023,0.723-0.023,1.095-0.006
					c-1.702-1.016-3.274-1.695-4.482-1.78c-4.379-0.307-4.867,5.302-4.867,5.302c0.414-0.047,1.105,0.053,1.969,0.265
					C89.124,53.896,91.842,52.366,94.148,52.26z"/>
				<g>
					<path style="fill:#FF9500;" d="M93.229,50.352c-8.883-4.691-15.17-4.192-17.643,3.453c-2.465,7.65-0.243,13.575,5.802,14.434
						c6.047,0.862,19.121-1.604,25.662-5.185C107.049,63.054,102.114,55.038,93.229,50.352z M89.098,65.806
						c-1.664-0.839-2.865-3.239-2.407-8.515c0.467-5.277,2.13-8.697,9.253-3.885c7.126,4.808,9.995,9.34,9.995,9.34
						C92.427,68.027,90.761,66.636,89.098,65.806z"/>
				</g>
				<g style="opacity:0.3;">
					<path style="fill:#FFB500;" d="M82.09,55.096c3.091,0.271,3.537,3.258,4.567,5.801c-0.089-1.02-0.081-2.209,0.034-3.606
						c0.467-5.277,2.13-8.697,9.253-3.885c0.021,0.01,0.043,0.027,0.065,0.043c-2.402-2.194-5.224-3.889-7.756-2.47
						c-2.082,1.164-4.21,2.051-6.664,1.662c-3.197-0.498-3.76-1.956-3.069-3.581c-1.254,1.063-2.243,2.619-2.935,4.745
						c-0.44,1.375-0.727,2.693-0.871,3.936C76.426,55.781,78.891,54.819,82.09,55.096z"/>
				</g>
			</g>
			<g>
				<path style="fill:#B54600;" d="M152.82,47.882c-1.23-1.35-3.207-2.651-5.647-2.913c-0.106,0.552-0.417,1.223-1.014,2.052
					c-3.161,4.356-19.294,2.087-32.447,11.591c2.687-0.94,8.659-2.572,17.019-2.215c10.652,0.451,14.855,2.565,19.287,0.615
					c0.491-0.345,0.943-0.716,1.322-1.109C153.436,53.682,154.055,49.241,152.82,47.882z"/>
				<path style="opacity:0.4;fill:#B54600;" d="M152.82,47.882c-1.23-1.35-3.207-2.651-5.647-2.913
					c-0.099,0.521-0.393,1.148-0.924,1.913c3.204,1.19,5.096,4.788,4.639,8.851c-0.031,0.234-0.075,0.467-0.116,0.702
					c0.202-0.169,0.393-0.352,0.568-0.532C153.436,53.682,154.055,49.241,152.82,47.882z"/>
				<path style="fill:#FF5C00;" d="M151.951,38.259c-3.327-4.068-5.792-6.412-18.011,0.496
					c-12.207,6.906-21.836,20.478-21.836,20.478s0.219-0.1,0.606-0.259c3.035-2.041,11.708-7.725,18.02-10.228
					c6.861-2.719,12.099-3.725,15.301-3.824c0.393-0.011,0.775,0.006,1.141,0.047c2.441,0.261,4.417,1.563,5.647,2.913
					c1.235,1.359,0.616,5.8-1.48,8.021c-0.378,0.394-0.831,0.764-1.322,1.109c0.393-0.174,0.794-0.377,1.199-0.615
					C156.147,53.439,155.285,42.334,151.951,38.259z"/>
				<path style="opacity:0.4;fill:#FF9000;" d="M152.387,47.446c-0.097-2.263-0.735-4.596-1.823-6.907
					c-0.717-1.514-1.567-3.399-1.006-4.792c-1.722-1.38-3.845-1.913-7.617-0.722c1.774,0.074,3.387,0.792,4.706,2.794
					c1.319,1.998,1.589,4.367-0.137,6.243c-0.287,0.314-0.597,0.6-0.919,0.882c0.154-0.005,0.303-0.015,0.44-0.021
					c0.393-0.011,0.775,0.006,1.141,0.047C149.346,45.205,151.142,46.255,152.387,47.446z"/>
			</g>
			<path style="fill:#FF9500;" d="M142.953,49.89c-5.091-3.518-11.478-1.11-24.525,5.642c-13.047,6.758-11.93,7.342-11.93,7.342
				l5.544,2.465c5.37,2.316,27.115,8.511,32.938,1.946C150.812,60.716,148.039,53.406,142.953,49.89z M143.316,67.836
				c-4.86,4.867-27.305-1.051-31.641-2.959l-4.627-1.941c0,0,3.332-2.314,12.496-3.702c11.713-1.779,21.09-2.246,25.158,0.559
				C148.783,62.587,145.82,65.338,143.316,67.836z"/>
			<path style="opacity:0.3;fill:#FF9000;" d="M140.09,55.148c0.178,0.394,0.108,0.798-0.274,1.041
				c-1.211,0.781-2.509,1.286-3.857,1.626c3.845,0.091,6.863,0.681,8.743,1.977c0.576,0.389,0.99,0.776,1.307,1.169
				c-0.009-0.766-0.149-1.572-0.445-2.406c-0.977-2.736-2.848-4.342-4.314-6.694c-0.787-1.26-0.78-2.333-0.26-3.003
				c-2.46-0.923-5.301-0.712-9.015,0.512C135.45,49.646,138.499,51.595,140.09,55.148z"/>
			<g>
				<path style="fill:#B54600;" d="M115.707,46.69c1.223-2.16,2.583-4.164,4.484-5.514c0.308-0.775,0.563-1.46,0.732-2.019
					c1.297-4.166,1.392-9.625-3.325-8.702c-3.262,0.638-7.091,3.973-9.732,10.571c-0.255,0.989-0.467,2.051-0.633,3.22
					c-1.261,8.777-0.6,17.734-0.559,18.287c0.616-0.669,1.329-1.466,2.174-2.39C110.866,55.526,113.232,51.079,115.707,46.69z"/>
				<path style="opacity:0.4;fill:#B54600;" d="M117.599,30.456c-0.881,0.175-1.808,0.552-2.732,1.125
					c1.418-0.051,2.764,0.83,3.825,3.305c0.853,1.978,1.17,4.245,1.105,6.593c0.134-0.1,0.262-0.208,0.394-0.303
					c0.308-0.775,0.563-1.46,0.732-2.019C122.221,34.992,122.315,29.533,117.599,30.456z"/>
				<path style="fill:#FFC100;" d="M131.848,41.005c-0.388-3.589-5-6.936-5-6.936c-2.222-2.498-6.752-5.463-10.457-3.89
					c-3.224,1.37-6.803,4.153-8.524,10.848c2.641-6.598,6.47-9.934,9.732-10.571c4.716-0.923,4.622,4.536,3.325,8.702
					c-1.29,4.158-6.567,14.896-11.841,20.719c-0.938,1.051-1.738,1.922-2.407,2.656c0,0.02,0,0.033,0,0.033s0-0.013,0-0.033
					c-0.089,0.212-0.178,0.339-0.178,0.339c4.069-1.541,13.322-6.231,19.15-11.04C131.475,47.021,132.125,43.6,131.848,41.005z"/>
				<path style="fill:#FF9000;" d="M131.848,41.005c-0.388-3.589-5-6.936-5-6.936c-2.087-2.349-6.211-5.101-9.776-4.123
					c0.154-0.005,0.304-0.012,0.458-0.005c0.809,0.022,1.471,0.217,2.015,0.546c1.762,0.521,2.272,2.572,2.113,4.899
					c0.01,0.622-0.022,1.254-0.089,1.881c0.852-1.754,1.928-2.975,3.892-1.504c3.77,2.822,5.457,6.913,4.868,11.078
					C131.831,44.497,132.019,42.59,131.848,41.005z"/>
			</g>
		</g>
		<path style="fill:#C1241D;" d="M138.381,71.32c0,0,6.045-1.477,8.883-2.465c2.836-0.988,5.301-2.22,10.243-3.581
			c4.935-1.354,8.139-1.354,13.813-3.081l-1.479,2.837c0,0,6.91,0.744,8.758,1.483c0,0-2.961,0.982-5.303,1.97
			c-2.343,0.988-5.802,1.605-7.28,2.104c-1.48,0.49-3.452,0.244-7.277,1.349c-3.825,1.117-13.08,3.582-15.671,4.075l1.488-3.703
			L138.381,71.32z"/>
		<path style="opacity:0.4;fill:#872900;" d="M157.468,72.304c-0.281,0.005-0.556,0.016-0.833,0.036
			c-1.04,0.076-2.157,0.33-3.204,0.181c-1.333-0.195-3.151-1.253-2.98-2.878c0.106-1.053,0.616-1.844,1.329-2.504
			c-1.669,0.627-3.046,1.206-4.516,1.717c-2.838,0.988-8.883,2.465-8.883,2.465l6.175,0.988l-1.488,3.703
			C145.411,75.566,153.171,73.515,157.468,72.304z"/>
		<path style="opacity:0.4;fill:#872900;" d="M169.841,65.03l1.479-2.837c-4.282,1.307-7.162,1.627-10.433,2.286
			c1.387,0.433,2.667,1.36,3.9,2.326c1.061,0.824,2.438,2.04,2.622,3.39c1.711-0.426,4.114-0.962,5.888-1.712
			c2.342-0.988,5.303-1.97,5.303-1.97C176.751,65.774,169.841,65.03,169.841,65.03z"/>
		<path style="fill:#F12400;" d="M161.426,65.27c-2.898-0.017-6.033,1.343-8.633,2.54c-0.072,0.037-0.036,0.138,0.051,0.121
			c1.678-0.404,3.452-0.733,5.18-1.137c-0.104,0.17-0.118,0.415,0.078,0.538c1.083,0.685,1.552,1.938,2.619,2.648
			c0.132,0.092,0.368-0.021,0.288-0.201c-0.486-1.094-1.081-2.145-2.036-2.87c0.183-0.191,0.383-0.349,0.589-0.509
			c0.669-0.191,1.334-0.393,1.977-0.632C161.828,65.662,161.715,65.27,161.426,65.27z"/>
		<path style="fill:#F12400;" d="M135.172,95.132c-7.277-2.711-9.359-4.377-9.499-8.39c0-0.105-0.327,0.739-0.339,0.845
			c-0.363,4.346,2.686,6.556,7.003,7.421C139.421,96.428,135.278,95.175,135.172,95.132z"/>
		<path style="fill:#F12400;" d="M132.91,118.778c-4.484-2.231-9.213-3.039-13.047-6.497c-0.14-0.129-0.361,0.074-0.244,0.216
			c3.207,3.996,8.329,5.633,13.177,6.627C133.006,119.166,133.09,118.868,132.91,118.778z"/>
		<path style="fill:#F12400;" d="M132.127,144.273c-2.511-1.016-4.914-2.258-7.313-3.501c-2.138-1.105-5.546-2.683-5.705-5.424
			c-0.007-0.107-0.178-0.118-0.183-0.012c-0.174,2.359,2.024,4.246,3.827,5.387c2.835,1.796,6.076,2.934,9.323,3.719
			C132.175,144.47,132.224,144.317,132.127,144.273z"/>
		<path style="fill:#F12400;" d="M128.639,160.864c-2.291-1.609-5.929-1.917-6.863-4.967c-0.065-0.191-0.373-0.127-0.341,0.074
			c0.423,3.002,4.335,4.897,7.043,5.228C128.659,161.219,128.803,160.981,128.639,160.864z"/>
		<path style="fill:#F12400;" d="M194.62,100.498c-2.176,3.856-4.482,7.565-8.404,9.893c-0.053,0.031,0,0.116,0.053,0.095
			c4.018-1.881,7.915-5.366,8.649-9.898C194.945,100.407,194.706,100.345,194.62,100.498z"/>
		<path style="fill:#F12400;" d="M197.766,122.65c-1.801,1.33-4.249,1.424-6.247,2.376c-1.957,0.929-3.681,2.47-5.212,3.978
			c-0.069,0.064,0.041,0.192,0.116,0.129c2.068-1.754,4.155-2.859,6.748-3.64c1.801-0.546,3.654-1.004,4.786-2.635
			C198.043,122.736,197.903,122.555,197.766,122.65z"/>
		<path style="fill:#F12400;" d="M196.401,136.024c-1.694-0.292-2.958,1.057-4.017,2.203c-1.926,2.095-3.946,4.049-6.16,5.845
			c-0.061,0.042,0,0.117,0.057,0.085c1.969-1.222,3.861-2.645,5.578-4.207c1.466-1.34,2.644-2.849,4.574-3.55
			C196.618,136.336,196.598,136.055,196.401,136.024z"/>
		<path style="fill:#F12400;" d="M195.258,152.699c-1.705,1.28-3.25,2.72-5.019,3.92c-1.907,1.298-3.885,2.497-5.766,3.836
			c-0.063,0.054-0.005,0.176,0.075,0.138c3.878-1.923,8.714-3.724,11.025-7.633C195.684,152.773,195.419,152.576,195.258,152.699z"
			/>
	</g>
</g>
</svg>
