<svg xmlns="http://www.w3.org/2000/svg" xml:space="preserve" width="128" height="128" data-id="lg_g5iSZuTeEn8DYJhl6S" data-version="1"><g data-padding="20"><path fill="#d80879" d="m106.342 25.472.042-.378v-.158l-.021-.22q0-.084-.021-.148l-.074-.241-.031-.105-.147-.284-.032-.063q-.105-.157-.23-.294l-.085-.073-.21-.168-.105-.074-.23-.126q-.032 0-.053-.031l-.084-.021-.231-.074q-.084 0-.148-.031l-.23-.021h-.148l-.273.02h-.094l-.357.106-79.998 31.906a2.058 2.058 0 0 0-.189 3.739L47.57 71.199a2.05 2.05 0 0 0 1.88-3.644L29.285 57.147l66.554-26.55-.483.473-40.403 40.413q-.21.21-.336.462l-.063.105q-.115.263-.168.525v.084q-.042.252-.01.515v.094q.063.273.178.526l.021.063 15.05 30.047a2.05 2.05 0 0 0 1.838 1.134h.063a2.08 2.08 0 0 0 1.828-1.26l32.872-77.97.032-.095ZM71.285 98.075 58.902 73.342l28.346-28.346 11.017-11.007.106-.105Z"/><path fill="transparent" stroke="transparent" stroke-width=".911" d="M12.5 14.323h103v99.354h-103z"/></g></svg>