<svg xmlns="http://www.w3.org/2000/svg" xml:space="preserve" data-id="lg_g5iSZuTeEn8DYJhl6S" data-version="1" viewBox="12.43 56.41 103.15 15.18"><g data-padding="20"><g transform="translate(56.043 54.784)scale(.14314)"><path fill="#233565" d="M-80.71 74.293q0 4.22-2.02 6.81-2.02 2.6-5.71 4.18-3.08 1.32-7.74 2.06-4.66.75-9.66 1.06-5.01.31-9.85.39-4.83.09-8.08.09-5.54 0-10.95-.17-5.4-.18-10.94-.53.26-8.97-.53-17.76 6.6.18 13.14.31 6.55.13 13.14.31l5.14.17q2.6.09 5.23.09h1.32q.88 0 1.85-.09.96-.08 1.8-.26.83-.17 1.27-.53.36-.35.44-1.01.09-.66.09-1.18 0-.97-.26-2.33-.27-1.36-.79-2.24-.09-.09-.57-.18-.49-.09-1.1-.13l-1.15-.09-.61-.04q-5.63-.44-11.21-.62-5.58-.17-11.2-.61-2.55-.27-5.23-.53t-4.97-.97q-2.2-.61-3.73-2.77-1.54-2.15-2.46-4.92-.93-2.77-1.32-5.58-.4-2.81-.4-4.75 0-3.16.62-6.02.61-2.85 1.97-5.31 1.37-2.46 3.48-4.35t5.18-3.12q5.27-2.03 11.3-2.82 6.02-.79 11.55-.79 6.51 0 12.83.79 6.33.79 12.66 2.03-.09 2.54-.13 5.05-.04 2.5-.04 5.05t.26 5.14l.53 5.15q-8.35.17-16.66.3-8.3.14-16.74.49-1.06 0-2.86.08-1.8.09-3.47.22-1.67.14-2.9.22l-1.23.09q-.44.97-.53 1.98t-.09 2.06q0 .53.05 1.32.04.79.39 1.23.09.09 1.5.27 1.4.17 3.12.35 1.71.17 3.25.35t1.89.18l6.81.61q3.91.35 8 .79t7.86 1.1q3.78.66 6.6 1.54 2.55.88 4.7 2.77t3.73 4.39q1.59 2.51 2.51 5.28.92 2.76.92 5.4m66.97-17.14q-11.51.62-22.93 1.01-11.43.4-22.94.84-.09.35-.09.7v.7q0 2.99 1.36 4.57 1.36 1.59 3.38 2.25 2.03.66 4.49.74 2.46.09 4.57.09 5.89 0 11.77-.39 5.89-.4 11.87-.84l.7 13.97q-5.8.27-11.56.44-5.75.18-11.55.18-1.23 0-4.53-.04-3.3-.05-7.03-.27-3.74-.22-6.99-.57t-4.3-.97q-2.73-1.58-4.27-4.04t-2.37-5.36q-.84-2.9-1.14-5.93-.31-3.03-.4-5.85-.09-.44-.04-.92.04-.48.04-.92 0-4.66 1.01-8.66t3.74-7.78q1.84-2.64 5.45-4.39 3.6-1.76 7.82-2.77t8.44-1.41q4.22-.39 7.29-.39 2.73 0 6.68.48 3.96.48 7.87 1.63 3.91 1.14 7.07 2.94 3.17 1.8 4.31 4.44.18.53.39 1.8l.49 2.9q.26 1.63.48 3.47l.4 3.52.3 2.99q.14 1.32.22 1.84m-41.3-5.45 29.35-.96q-.53-3.87-1.98-6.11t-3.6-3.34-4.92-1.41-5.93-.31q-1.06 0-2.64.05-1.58.04-3.16.26-1.59.22-2.99.66-1.41.44-2.2 1.23-.62.53-1.01 1.45-.4.92-.66 1.98-.26 1.05-.4 2.06-.13 1.02-.13 1.72 0 1.4.27 2.72m99.4 11.96v4.79q0 2.41-.18 4.79l-19.6 1.23q.36-4.57.58-9.06.22-4.48.22-9.14v-1.49q0-1.06-.09-2.24l-.18-2.24q-.09-1.06-.17-1.5-.44-1.23-.93-2.11-.48-.88-1.14-1.4-.66-.53-1.62-.75-.97-.22-2.38-.22-1.05 0-2.68.18-1.62.17-3.29.52-1.67.36-3.17.88-1.49.53-2.11 1.23l-.17 25.93q-.18-.35-1.01-.35H5.25q-2.64 0-5.45.22t-5.45.57q-1.14-10.37-2.02-20.65-.88-10.29-2.02-20.66 1.76-.09 3.51-.13 1.76-.04 3.52-.04 2.28 0 4.61.13t4.62.22l.61 6.76q2.46-4.04 6.68-6.76 4.22-2.73 9.05-2.73 2.47 0 5.1.27 2.64.26 5.06 1.05 2.41.79 4.57 2.2 2.15 1.4 3.64 3.6.71 1.06 1.19 3.12.48 2.07.84 4.66.35 2.59.57 5.49t.3 5.54q.09 2.64.14 4.79.04 2.15.04 3.3m69.7-22.77v7.3q0 3.6-.18 7.29-.17 8.09-.7 16.04-.53 7.96-1.14 15.95-8 .53-15.82.88-7.83.36-15.82.36-1.06 0-3.34-.05-2.29-.04-4.88-.13-2.6-.09-4.88-.31-2.29-.22-3.34-.66-6.77-2.46-10.06-6.63-3.3-4.18-3.3-11.56v-1.41q.18-3.25.53-5.8t1.27-4.66q.93-2.11 2.55-3.91 1.63-1.8 4.44-3.64 1.93-1.32 4.57-2.2t5.49-1.5q2.86-.61 5.63-.87 2.77-.27 5.05-.27 4.22 0 8.4.62 4.17.61 8.3 1.84-.44-5.8-.75-11.47-.3-5.67-.92-11.38 4.75-.44 9.41-.97l9.31-1.05q.09 4.57.13 9.1.05 4.52.05 9.09m-13.45 26.55v-4.05q0-2.02-.09-4.04-5.53-.26-11.07-.26l-3.34.04q-2.55.04-5.41.18-2.85.13-5.31.44-2.47.3-3.17.74-1.32.97-1.62 2.73-.31 1.75-.31 3.25 0 .7.09 1.89.08 1.18.3 2.46.22 1.27.57 2.37.36 1.1.8 1.63.26.26.92.44.66.17 1.45.26t1.54.09h1.18q5.01 0 9.94-.44 4.92-.44 9.93-1.14.7-.18 1.67-.22.96-.05 1.75-.31v-.18q0-.08.09-.17.18-1.41.13-2.81-.04-1.41-.04-2.9m101.95 3.68 1.32 16.43q-10.46.79-20.78 1.5-10.33.7-20.79 1.32-.44-16.79-.7-33.36-.27-16.57-.97-33.44 5.89-.09 11.6-.35 5.71-.27 11.51-.71-.96 6.51-1.8 13.06-.83 6.54-1.27 13.13-.35 5.54-.57 11.04-.22 5.49-.4 11.03 5.8.17 11.47.17t11.38.18m71.11-16.17v1.36q0 .66-.09 1.36-.09 1.23-.44 4.04-.35 2.82-.97 5.85-.61 3.03-1.49 5.58t-1.93 3.25q-.53.35-3.56.62-3.04.26-7.39.52-4.35.27-9.45.44-5.09.18-9.71.31l-8.08.22q-3.48.09-4.62.09h-1.8q-1.27 0-2.68-.05-1.41-.04-2.64-.13t-1.75-.26q-1.24-.44-2.47-1.45t-2.28-2.29q-1.06-1.27-1.89-2.63-.84-1.37-1.19-2.6-.26-.96-.44-2.94-.17-1.98-.26-4.13-.09-2.16-.13-4.18-.05-2.02-.05-3.07 0-1.67.09-4.62.09-2.94.53-6.02.44-3.07 1.27-5.75.84-2.69 2.42-3.74.7-.44 2.64-.79 1.93-.35 4.57-.62 2.63-.26 5.62-.39t5.85-.18q2.85-.04 5.31-.04 2.47 0 3.96.09 1.32.08 3.78.13 2.46.04 5.49.13t6.29.31q3.25.22 6.06.57t4.97.92q2.15.57 2.85 1.36 1.15 1.23 1.85 3.7.7 2.46 1.1 5.23.39 2.76.53 5.44.13 2.69.13 4.36m-18.64 1.84q0-1.05-.08-2.46-.09-1.41-.27-2.86-.17-1.45-.52-2.81-.36-1.36-.88-2.24-.71-1.14-2.73-1.76-2.02-.61-4.44-.92-2.41-.31-4.74-.4-2.33-.08-3.47-.08-.62 0-2.2.04t-3.3.13q-1.71.09-3.21.31-1.49.22-1.93.48-.79.53-1.23 1.63t-.66 2.42q-.22 1.31-.26 2.59-.05 1.27-.05 2.06t.14 2.86q.13 2.07.35 4.39.22 2.33.57 4.27.35 1.93.88 2.46.61.7 2.33 1.14 1.71.44 3.69.75t3.82.44q1.85.13 2.64.13 1.4 0 3.34-.09 1.93-.09 3.91-.44t3.73-.96q1.76-.62 2.82-1.67.61-.62.96-1.85t.53-2.64q.18-1.4.22-2.77.04-1.36.04-2.15m81.75-16.61q-3.25 6.06-6.41 11.73-3.17 5.67-6.46 11.16-3.3 5.5-6.82 10.95-3.51 5.45-7.47 11.07l-15.29.62-17.4-45.97 19.51-.53q1.76 8.18 3.38 16.31 1.63 8.13 3.39 16.39 3.34-7.74 6.46-15.38 3.12-7.65 5.67-15.74 5.45 0 10.72-.08 5.27-.09 10.72-.53m62.83 16.97q-11.51.62-22.94 1.01-11.42.4-22.93.84-.09.35-.09.7v.7q0 2.99 1.36 4.57 1.36 1.59 3.38 2.25t4.49.74q2.46.09 4.57.09 5.88 0 11.77-.39 5.89-.4 11.87-.84l.7 13.97q-5.8.27-11.56.44-5.75.18-11.55.18-1.23 0-4.53-.04-3.3-.05-7.03-.27-3.74-.22-6.99-.57t-4.3-.97q-2.73-1.58-4.27-4.04t-2.37-5.36q-.84-2.9-1.14-5.93-.31-3.03-.4-5.85-.09-.44-.04-.92.04-.48.04-.92 0-4.66 1.01-8.66t3.74-7.78q1.84-2.64 5.45-4.39 3.6-1.76 7.82-2.77t8.44-1.41q4.22-.39 7.29-.39 2.73 0 6.68.48 3.96.48 7.87 1.63 3.91 1.14 7.07 2.94 3.17 1.8 4.31 4.44.17.53.39 1.8l.49 2.9q.26 1.63.48 3.47l.4 3.52.3 2.99q.14 1.32.22 1.84m-41.3-5.45 29.35-.96q-.53-3.87-1.98-6.11t-3.6-3.34-4.92-1.41-5.93-.31q-1.06 0-2.64.05-1.58.04-3.17.26-1.58.22-2.98.66-1.41.44-2.2 1.23-.62.53-1.01 1.45-.4.92-.66 1.98-.26 1.05-.4 2.06-.13 1.02-.13 1.72 0 1.4.27 2.72"/><rect width="560" height="101.7" x="-606.539" y="-386.967" fill="none" rx="0" ry="0" transform="translate(451.56 400.5)"/><path fill="#d80879" d="M-266.54 48.703h-25.2a2.1 2.1 0 0 0 0 4.2h25.2a2.1 2.1 0 0 0 0-4.2m-4.2 12.6h-21a2.1 2.1 0 0 0 0 4.2h21a2.1 2.1 0 0 0 0-4.2m-4.2 12.6h-16.8a2.1 2.1 0 0 0 0 4.2h16.8a2.1 2.1 0 0 0 0-4.2m93.157-38.808a8.82 8.82 0 0 0-7.056-3.192h-54.6c-5.565 0-11.046 4.43-12.212 9.87l-9.082 42.378a8.82 8.82 0 0 0 1.638 7.56 8.82 8.82 0 0 0 7.056 3.192h54.6c5.565 0 11.046-4.431 12.211-9.87l9.083-42.378a8.82 8.82 0 0 0-1.638-7.56m-9.765 12.999-20.181 20.16 9.061 10.374a2.1 2.1 0 0 1-3.16 2.761l-8.883-10.153-.021.02a9.45 9.45 0 0 1-7.56 2.878 9.45 9.45 0 0 1-6.93-4.158l-1.187-1.701-17.23 13.786q-.599.462-1.313.452a2.1 2.1 0 0 1-1.312-3.738l17.45-13.955-12.032-17.188a2.1 2.1 0 0 1 3.433-2.405l15.645 22.344a5.25 5.25 0 0 0 3.854 2.384 5.25 5.25 0 0 0 4.22-1.67l1.618-1.606.084-.105.063-.042 21.42-21.42a2.1 2.1 0 0 1 2.971 0c.798.84.798 2.152-.02 2.982"/></g><path fill="transparent" stroke="transparent" stroke-width=".147" d="M12.5 56.485h103v15.03h-103z"/></g></svg>