<svg xmlns="http://www.w3.org/2000/svg" xml:space="preserve" data-id="lg_g5iSZuTeEn8DYJhl6S" data-version="1" viewBox="719.5 -0.5 561 103"><g data-padding="20"><g transform="translate(10 1.821)scale(.96429)"><path fill="#111" d="M882.467 58.25q0-7.82-8.44-12.56-1.67-.88-10.28-4.66-7.82-3.34-9.84-6.86-1.06-1.93-1.06-4.13 0-5.89 5.72-8.17 2.46-.97 5.45-.97 7.38 0 11.25 5.01 2.54 3.43 2.46 8.35h2.63V18.88q-2.11 0-2.46 1.32-.17.61-.17 1.67-6.24-3.43-14.07-3.43-9.49 0-14.76 5.27-3.52 3.69-3.52 8.62 0 7.38 8.26 12.04 1.5.79 10.02 4.48 7.91 3.51 10.02 7.12 1.15 2.02 1.15 4.39 0 6.16-5.98 8.88-2.81 1.23-6.24 1.23-13.45-.18-14.94-16.44h-2.64v18.2q2.11 0 2.46-1.23.18-.71.18-2.55 6.77 4.48 15.38 4.48 10.11 0 15.64-5.45 3.78-3.87 3.78-9.23m26.28-22.23q6.15 0 8.18 5.18.7 1.67.7 3.61 0 4.39-4.22 5.36-2.2.44-6.24.35l-9.32-.26q.44-10.11 6.59-13.19 2.03-1.05 4.31-1.05m15.29 27.59-2.19-.79q-3.08 6.68-9.93 7.56-.88.09-1.67.09-9.23 0-11.61-10.99-.7-3.07-.79-6.76l10.55.17q10.72.18 13.8-2.02 2.37-1.76 2.37-5.01 0-5.98-6.06-9.49-4.31-2.55-9.93-2.55-10.99 0-15.74 9.14-2.46 4.75-2.46 10.72 0 10.9 7.82 16.18 4.66 3.07 10.64 3.07 9.49 0 13.97-6.85.71-1.23 1.23-2.47m23.38 6.25h-3.95V50.87q.26-8.17 5.8-11.78 2.37-1.49 4.83-1.49 5.36 0 7.3 5.01.79 2.02.79 4.57v17.4q0 4.04-2.29 4.84-1.31.44-4.3.44v2.19h19.77q0-1.93-1.32-2.11-.35-.08-.87-.08h-4.4v-21.8q0-8.79-6.06-12.57-2.82-1.67-6.07-1.67-6.5 0-10.72 5.19-1.58 2.02-2.55 4.48l-.35-8.79h-12.75v2.2h6.6v27.68q0 4.04-2.29 4.84-1.32.44-4.31.44v2.19h19.34q0-1.93-1.32-2.11-.35-.08-.88-.08m62.93-7.12.71 9.31h12.56q0-1.93-1.31-2.11-.36-.08-.88-.08h-4.4l-.17-54.94h-14.94v2.2h8.35v21.45q-4.31-4.75-11.61-4.75-9.66 0-14.59 8.61-2.98 5.28-2.98 11.87 0 10.9 6.85 15.91 3.87 2.72 8.53 2.72 9.58-.17 13.88-10.19m-21.79-9.5q0-12.39 6.68-16.08 2.11-1.14 4.65-1.14 6.42 0 9.14 6.85 1.5 3.69 1.5 8.7 0 10.55-5.27 15.3-2.82 2.55-6.42 2.55-7.21 0-9.4-8.79-.88-3.26-.88-7.39m57.83 18.81h38.49l.44-17.58h-1.75l-1.5 5.89q-2.11 8.09-7.03 9.23-1.05.18-2.02.18h-12.04V21.6h7.38v-2.28h-21.97v2.28h7.03v48.17h-7.03Zm50.8-18.72q0-13.62 7.47-16.61 1.93-.7 4.04-.7 9.76 0 11.34 12.3.26 2.11.26 4.66 0 14.77-8.08 17.31-1.58.44-3.25.44-8.88 0-11.17-10.54-.61-3.08-.61-6.86m11.78-19.51q-8.44 0-14.07 5.8-5.18 5.36-5.18 13.36 0 11.07 8.08 16.61 4.93 3.34 10.9 3.34 8.44 0 13.98-5.98 5.1-5.44 5.1-13.62 0-11.07-8.18-16.43-4.83-3.08-10.63-3.08m33.48 3.08h6.16v-2.2h-17.06v2.2h3.96l10.72 29.44q1.76 4.92 3.87 5.71 1.05.44 2.64.44h1.14l12.39-32.52q1.06-2.72 2.55-2.99.44-.08.79-.08 1.93 0 2.11-1.32.09-.44.09-.88h-13.54v2.2h6.59l-11.16 29.97Zm51.51-.88q6.15 0 8.17 5.18.7 1.67.7 3.61 0 4.39-4.22 5.36-2.19.44-6.24.35l-9.31-.26q.44-10.11 6.59-13.19 2.02-1.05 4.31-1.05m15.29 27.59-2.2-.79q-3.07 6.68-9.93 7.56-.88.09-1.67.09-9.23 0-11.6-10.99-.7-3.07-.79-6.76l10.55.17q10.72.18 13.79-2.02 2.38-1.76 2.38-5.01 0-5.98-6.07-9.49-4.3-2.55-9.93-2.55-10.99 0-15.73 9.14-2.46 4.75-2.46 10.72 0 10.9 7.82 16.18 4.66 3.07 10.63 3.07 9.5 0 13.98-6.85.7-1.23 1.23-2.47"/><rect width="560" height="101.7" x="295.107" y="-400.35" fill="none" rx="0" ry="0" transform="translate(451.56 400.5)"/><path fill="#d80879" d="m814.577 20.432.032-.295v-.123l-.016-.172q0-.066-.016-.115l-.058-.188-.024-.082-.115-.222-.025-.049q-.082-.123-.18-.23l-.066-.057-.164-.131-.082-.058-.18-.098q-.025 0-.041-.025l-.066-.016-.18-.057q-.066 0-.115-.025l-.18-.016h-.115l-.213.016h-.074l-.279.082-62.46 24.912a1.607 1.607 0 0 0-.147 2.919l18.876 9.733a1.6 1.6 0 0 0 1.468-2.845l-15.744-8.126 51.964-20.73-.378.369-31.545 31.554q-.164.164-.262.36l-.05.082q-.09.205-.13.41v.066q-.034.197-.009.402v.074q.05.213.14.41l.016.049 11.75 23.46a1.6 1.6 0 0 0 1.435.886h.05a1.63 1.63 0 0 0 1.426-.984l25.666-60.877.025-.074ZM787.205 77.12l-9.668-19.311 22.132-22.132 8.602-8.593.082-.082Z"/></g><path fill="transparent" stroke="transparent" d="M720 0h560v102H720z"/></g></svg>