<svg xmlns="http://www.w3.org/2000/svg" xml:space="preserve" data-id="lg_WotU6z9MRMVBsdCvUk" data-version="1" viewBox="719 -0.5 562 88"><g data-padding="20"><g transform="translate(10 1.55)scale(.96435)"><circle cx="812.953" cy="-463.175" r="59" fill="#011434" transform="matrix(.77 0 0 .77 165.68 399.97)"/><path fill="#011434" stroke="transparent" d="M877.104 32.925q10.17 2.85 15.33 6.7t5.16 10.24q0 4.16-2.28 7.35-2.27 3.2-6.27 4.89-4.01 1.7-9.01 1.7-5.47 0-10.4-2.31-4.92-2.31-9.08-6.47v7.7h-7.01v-17.79l4.47-.23q4.08 5.93 9.93 9.32t11.63 3.39q4.31 0 7.04-1.85 2.74-1.85 2.74-5.01 0-3.46-3.85-5.96-3.85-2.51-13.09-4.89-9.63-2.55-14.1-6.66-4.46-4.12-4.46-10.13 0-4.16 2.27-7.35 2.27-3.2 6.12-4.93t8.39-1.73q10.71 0 17.33 7.85v-6.78h7.01v17.56l-4.31.23q-3.24-6.16-7.94-9.32-4.69-3.15-10.31-3.15-4.55 0-7.43 1.96-2.89 1.96-2.89 5.27 0 3.39 3.5 5.82 3.51 2.42 11.51 4.58m71.69 23.79h7.24v6.09h-21.41v-6.09h6.7v-15.01q0-4.47-2.12-6.93-2.11-2.47-6.12-2.47-6.24 0-13.86 8.47v15.94h6.62v6.09h-22.33v-6.09h8.17v-40.65h-8.17v-6.09h15.71v24.87q4.24-4.62 8.2-6.93 3.97-2.31 8.66-2.31 6.24 0 9.48 3.97 3.23 3.97 3.23 11.9Zm51.9-.31 1.54 5.47q-2.54 1.54-5.93 1.54-2.85 0-4.81-1.65-1.97-1.66-2.74-4.74-7.7 6.85-15.24 6.85-5.32 0-9.01-3-3.7-3-3.7-8.39 0-3.7 2.08-6.43 2.08-2.74 5.58-4.16 3.51-1.42 7.59-1.42 3.46 0 6.39.65 2.92.65 6 1.89v-3.39q0-3.93-2.61-5.78-2.62-1.84-6.86-1.84-6 0-14.47 3.31l-1.54-5.86q9.08-3.85 16.94-3.85 7.47 0 11.59 3.66t4.12 10.67v13.32q0 3.77 2.69 3.77 1.16 0 2.39-.62m-32.42-4.31q0 2.62 2.08 4.05 2.08 1.42 5.08 1.42 2.62 0 6.01-1.39 3.39-1.38 7-4.08v-4.08q-5.23-1.85-11.08-2-3.78 0-6.43 1.58-2.66 1.58-2.66 4.5m70.3-26.49h3.24v15.4h-6.7v-7.93q-3.01 0-6.55 2.24-3.54 2.23-7.31 6.31v15.09h8.24v6.09h-23.95v-6.09h8.16v-24.1h-8.16v-6.08h15.71v9.08q4.08-4.69 8.51-7.35 4.42-2.66 8.81-2.66m42.81 26.88 3.24 4.93q-7.39 6.46-16.87 6.46-5.15 0-9.77-2.15-4.62-2.16-7.47-6.32-2.85-4.15-2.85-9.85 0-6.09 2.92-10.63 2.93-4.54 7.63-6.97 4.69-2.42 9.85-2.42 4.55 0 8.13 1.46t5.62 4.08 2.04 6.01q0 5.08-4.35 7.89t-10.44 2.81q-3.92 0-7.31-.81t-6.85-2.35v.7q0 3.62 1.73 6.39t4.66 4.23q2.92 1.47 6.39 1.47 7.85 0 13.7-4.93m-12.78-20.95q-4.16 0-7.74 2.39t-5.12 6.47q5.85 2.08 11.71 2.08 3.85 0 6.35-1.43 2.5-1.42 2.5-3.96 0-2.47-2.15-4.01-2.16-1.54-5.55-1.54m86.46 12.94h7.47v18.33h-49.51v-6.4h9.93v-40.04h-9.93v-6.39h27.72v6.39h-9.86v40.04h24.18Zm34.43 19.4q-5.31 0-9.93-2.38-4.62-2.39-7.35-6.78-2.74-4.39-2.74-10.01 0-5.7 2.74-10.05 2.73-4.35 7.35-6.74 4.62-2.38 9.93-2.38 5.24 0 9.82 2.38 4.58 2.39 7.35 6.78t2.77 10.01-2.69 10.01q-2.7 4.39-7.28 6.78-4.58 2.38-9.97 2.38m0-6.08q3.47 0 6.24-1.62 2.77-1.61 4.35-4.58 1.58-2.96 1.58-6.89t-1.58-6.89q-1.58-2.97-4.35-4.58-2.77-1.62-6.24-1.62-5.31 0-8.74 3.58-3.42 3.58-3.42 9.51t3.42 9.51q3.43 3.58 8.74 3.58m70.07-31.26v6.08h-6l-16.1 31.19h-3.85l-16.4-31.19h-5.54v-6.08h19.63v5.54h-6.08l11.09 22.33 10.86-22.33h-6.24v-5.54Zm35.88 25.95 3.24 4.93q-7.39 6.46-16.86 6.46-5.16 0-9.78-2.15-4.62-2.16-7.47-6.32-2.85-4.15-2.85-9.85 0-6.09 2.92-10.63 2.93-4.54 7.63-6.97 4.69-2.42 9.85-2.42 4.55 0 8.13 1.46t5.62 4.08 2.04 6.01q0 5.08-4.35 7.89t-10.44 2.81q-3.92 0-7.31-.81t-6.85-2.35v.7q0 3.62 1.73 6.39t4.66 4.23q2.92 1.47 6.39 1.47 7.85 0 13.7-4.93m-12.78-20.95q-4.16 0-7.74 2.39t-5.12 6.47q5.86 2.08 11.71 2.08 3.85 0 6.35-1.43 2.5-1.42 2.5-3.96 0-2.47-2.15-4.01-2.16-1.54-5.55-1.54"/><rect width="458.55" height="87.01" x="396.694" y="-400.145" fill="none" rx="0" ry="0" transform="translate(451.73 400.14)"/><path fill="#f76ce3" d="M779.164 39.065q5.68 1.59 8.56 3.74t2.88 5.72q0 2.32-1.27 4.1-1.27 1.79-3.5 2.74-2.24.94-5.03.94-3.06 0-5.81-1.29t-5.07-3.61v4.3h-3.92v-9.93l2.5-.13q2.28 3.31 5.54 5.2 3.27 1.89 6.5 1.89 2.41 0 3.93-1.03 1.53-1.03 1.53-2.79 0-1.94-2.15-3.34-2.15-1.39-7.31-2.73-5.38-1.42-7.87-3.72t-2.49-5.65q0-2.32 1.26-4.11 1.27-1.78 3.42-2.75t4.69-.97q5.98 0 9.67 4.39v-3.79h3.92v9.81l-2.41.13q-1.81-3.44-4.43-5.21-2.62-1.76-5.76-1.76-2.54 0-4.15 1.1-1.61 1.09-1.61 2.94 0 1.9 1.95 3.25 1.96 1.35 6.43 2.56m38.79 6.45h4.17v10.23h-27.65v-3.57h5.55v-22.36h-5.55v-3.57h15.48v3.57h-5.5v22.36h13.5Z"/><rect width="61.4" height="48.59" x="595.274" y="-380.935" fill="none" rx="0" ry="0" transform="translate(168.03 401.84)"/></g><path fill="transparent" stroke="transparent" d="M719.5 0h561v87h-561z"/></g></svg>