<svg xmlns="http://www.w3.org/2000/svg" xml:space="preserve" data-id="lg_qGdZZy49QEHwEgMkV5" data-version="1" viewBox="719.5 -0.5 561 141"><g data-padding="20"><g transform="translate(10 2.5)scale(.96429)"><rect width="311.269" height="155.799" x="540.662" y="-444.566" fill="#ad79e1" paint-order="stroke" rx="19" ry="19" transform="matrix(.9 0 0 .9 260.16 400)" vector-effect="non-scaling-stroke"/><rect width="311.269" height="155.799" x="540.662" y="-444.566" fill="#0099f2" paint-order="stroke" rx="19" ry="19" transform="matrix(.9 0 0 .9 539.84 400)" vector-effect="non-scaling-stroke"/><path fill="#fff" d="M802.256 38.78q-13.34 0-13.34 25.73v6.8q0 12.22 3.53 19.15 3.53 6.92 10.41 6.92 9.47 0 17.38-18.41h1.55l-.6 19.19h-.95q-.51-.95-.94-1.34-.43-.38-1.25-.38t-6.24 1.33q-5.42 1.34-11.01 1.34-14.03 0-21.73-7.58-7.7-7.57-7.7-22.76t8.04-23.45q8.05-8.26 21.64-8.26 5.25 0 10.29 1.33 5.03 1.34 5.89 1.34t1.29-.39.95-1.33h.95l.68 18.67h-1.54q-3.88-8.69-7.96-13.29-4.09-4.61-9.34-4.61m52.75 42.51v-7.31q0-8.35-.9-12.18-.91-3.83-4.18-3.83-1.89 0-3.05 1.08-1.16 1.07-1.68 3.57-.78 3.87-.78 11.79v6.71q0 9.38.56 11.27.56 1.9 1.17 3.1.94 2.07 3.7 2.07 3.35 0 4.38-3.88.78-2.75.78-12.39m-5.34 17.82q-10.75 0-16.26-5.51t-5.51-15.79q0-10.29 5.9-15.84 5.89-5.55 16.56-5.55t15.92 5.12 5.25 15.62q0 21.95-21.86 21.95m41.74-18.68q0 9.04.95 12.01.94 2.96 3.48 2.96t4.39-2.23q1.85-2.24 1.85-6.63V67.78q0-3.7-1.46-6.28-1.47-2.58-4.31-2.58t-3.87 3.78q-1.03 3.79-1.03 13.26Zm30.89 17.81h-19.1l-.95-6.02q-2.92 6.89-11.87 6.89-7.4 0-11.49-5.34t-4.09-15.92q0-21.43 17.04-21.43 7.57 0 9.98 4.22V35.25h-5.25V33.7h21.52v63h4.21Zm24.87.87q-11.1 0-16.65-5.73-5.55-5.72-5.55-15.92 0-10.19 6.24-15.62 6.24-5.42 15.88-5.42 19.53 0 18.76 19.62h-24.27v3.36q0 8.43 2.15 12.73 2.15 4.31 7.49 4.31 9.98 0 13.08-10.67l1.55.25q-1.64 6.2-5.9 9.64-4.26 3.45-12.78 3.45m-5.51-29v4.21h8.87v-4.21q0-6.98-.82-9.51-.82-2.54-3.27-2.54t-3.61 2.71q-1.17 2.71-1.17 9.34m75.47 27.27q4.22 0 5.38-1.54 1.16-1.55 1.16-5.25v-16.7h-5.5V72h24.78v1.89h-3.36v24.27h-1.29q-1.55-2.15-4.39-2.15-1.2 0-7.18 1.55t-10.2 1.55q-14.03 0-21.73-7.58-7.7-7.57-7.7-22.76t8.05-23.45q8.04-8.26 21.64-8.26 5.25 0 10.54 1.33 5.29 1.34 6.15 1.34t1.29-.39q.44-.39.95-1.33h.95l.69 18.67h-1.55q-4.22-8.35-8.48-13.12-4.26-4.78-9.51-4.78-13.16 0-13.16 25.73v6.8q0 12.91 3.22 19.49 3.23 6.58 9.25 6.58m49.74-19.36h2.5V71.4q0-8.18-.91-10.98-.9-2.79-3.48-2.79-1.55 0-2.8.81-1.24.82-1.24 2.24t.51 2.89h2.15q.69 1.8.69 4.34t-2.15 4.39-5.42 1.85q-7.4 0-7.4-7.14 0-10.59 17.98-10.59 10.24 0 14.16 3.49 3.91 3.48 3.91 12.78v17.47q0 4.47 2.5 4.47 2.93 0 3.44-8.86l1.29.08q-.34 7.58-2.84 10.42-2.49 2.84-8.17 2.84-10.33 0-11.88-6.37-1.12 3.27-3.35 4.82-2.24 1.55-6.54 1.55-12.74 0-12.74-10.42 0-6.11 4.86-8.39t14.93-2.28m-3.44 10.59q0 4.47.47 5.76.48 1.29 1.81 1.29t2.5-2.19q1.16-2.2 1.16-6.07v-8h-.6q-5.34 0-5.34 7.83Zm58.78-28.92q-3.19 0-5.6 4.13t-2.41 9.81V96.7h6.11v1.54h-26.85V96.7h4.74V58.83h-4.74v-1.55h20.74v8.26q1.12-4.38 4.3-6.75 3.19-2.37 7.23-2.37 4.05 0 6.59 2.28 2.53 2.28 2.53 6.46 0 4.17-1.89 6.41t-5.81 2.24q-3.91 0-5.76-2.59-1.85-2.58-.48-7.14h3.1q2.15-4.39-1.8-4.39m31.32 20.74q0 9.04.95 12.01.94 2.96 3.48 2.96t4.39-2.23q1.85-2.24 1.85-6.63V67.78q0-3.7-1.46-6.28-1.47-2.58-4.31-2.58t-3.87 3.78q-1.03 3.79-1.03 13.26Zm30.89 17.81h-19.1l-.95-6.02q-2.92 6.89-11.87 6.89-7.4 0-11.49-5.34t-4.09-15.92q0-21.43 17.04-21.43 7.57 0 9.98 4.22V35.25h-5.25V33.7h21.52v63h4.21Zm24.87.87q-11.1 0-16.65-5.73-5.55-5.72-5.55-15.92 0-10.19 6.24-15.62 6.24-5.42 15.88-5.42 19.53 0 18.75 19.62h-24.26v3.36q0 8.43 2.15 12.73 2.15 4.31 7.49 4.31 9.98 0 13.08-10.67l1.54.25q-1.63 6.2-5.89 9.64-4.26 3.45-12.78 3.45m-5.51-29v4.21h8.87v-4.21q0-6.98-.82-9.51-.82-2.54-3.27-2.54t-3.61 2.71q-1.17 2.71-1.17 9.34m27.45-11.28v-1.55h20.74v7.92q1.38-3.96 4.22-6.37t8.61-2.41q13.33 0 13.33 14.37V96.7h4.82v1.54h-24.35V96.7h3.53V68.73q0-5.16-.69-6.67t-2.5-1.51q-2.75 0-4.86 3.62-2.11 3.61-2.11 8.77V96.7h3.7v1.54h-24.44V96.7h4.74V58.83Z" font-family="Abril Fatface" font-size="86.053"/></g><path fill="transparent" stroke="transparent" d="M720 0h560v140H720z"/></g></svg>